<mxfile host="Electron" agent="Mozilla/5.0 (X11; Linux x86_64) AppleWebKit/537.36 (KHTML, like Gecko) draw.io/28.2.5 Chrome/138.0.7204.251 Electron/37.6.1 Safari/537.36" version="28.2.5" pages="5">
  <diagram name="al_medio_0" id="pOk1RRSEUn3NPg0e1jV3">
    <mxGraphModel dx="1370" dy="843" grid="1" gridSize="10" guides="1" tooltips="1" connect="1" arrows="1" fold="1" page="1" pageScale="1" pageWidth="850" pageHeight="1100" math="0" shadow="0">
      <root>
        <mxCell id="0" />
        <mxCell id="1" parent="0" />
        <mxCell id="X5KMLDDobMwLdnI47xeI-1" value="&lt;span style=&quot;color: rgb(77, 77, 77); font-family: &amp;quot;Cascadia Code&amp;quot;;&quot;&gt;&lt;font style=&quot;font-size: 18px;&quot;&gt;&quot;almendras&quot;&lt;/font&gt;&lt;/span&gt;" style="rounded=0;whiteSpace=wrap;html=1;strokeWidth=1;fillColor=#DFEAF2;" parent="1" vertex="1">
          <mxGeometry x="560" y="520" width="120" height="70" as="geometry" />
        </mxCell>
        <mxCell id="X5KMLDDobMwLdnI47xeI-2" value="&lt;span style=&quot;color: rgb(77, 77, 77); font-family: &amp;quot;Cascadia Code&amp;quot;;&quot;&gt;&lt;font style=&quot;font-size: 18px;&quot;&gt;&quot;pistachos&quot;&lt;/font&gt;&lt;/span&gt;" style="rounded=0;whiteSpace=wrap;html=1;strokeWidth=1;fillColor=#DFEAF2;" parent="1" vertex="1">
          <mxGeometry x="680" y="520" width="120" height="70" as="geometry" />
        </mxCell>
        <mxCell id="X5KMLDDobMwLdnI47xeI-3" value="&lt;span style=&quot;color: rgb(77, 77, 77); font-family: &amp;quot;Cascadia Code&amp;quot;;&quot;&gt;&lt;font style=&quot;font-size: 18px;&quot;&gt;&quot;maníes&quot;&lt;/font&gt;&lt;/span&gt;" style="rounded=0;whiteSpace=wrap;html=1;strokeWidth=1;fillColor=#DFEAF2;" parent="1" vertex="1">
          <mxGeometry x="800" y="520" width="120" height="70" as="geometry" />
        </mxCell>
        <mxCell id="X5KMLDDobMwLdnI47xeI-4" value="&lt;span style=&quot;color: rgb(77, 77, 77); font-family: &amp;quot;Cascadia Code&amp;quot;;&quot;&gt;&lt;font style=&quot;font-size: 18px;&quot;&gt;&quot;castañas&quot;&lt;/font&gt;&lt;/span&gt;" style="rounded=0;whiteSpace=wrap;html=1;strokeWidth=1;fillColor=#DFEAF2;" parent="1" vertex="1">
          <mxGeometry x="920" y="520" width="120" height="70" as="geometry" />
        </mxCell>
        <mxCell id="X5KMLDDobMwLdnI47xeI-5" value="&lt;span style=&quot;color: rgb(77, 77, 77); font-family: &amp;quot;Cascadia Code&amp;quot;;&quot;&gt;&lt;font style=&quot;font-size: 18px;&quot;&gt;&quot;nueces&quot;&lt;/font&gt;&lt;/span&gt;" style="rounded=0;whiteSpace=wrap;html=1;strokeWidth=1;fillColor=#DFEAF2;" parent="1" vertex="1">
          <mxGeometry x="440" y="520" width="120" height="70" as="geometry" />
        </mxCell>
        <mxCell id="X5KMLDDobMwLdnI47xeI-6" value="&lt;font style=&quot;color: rgb(77, 77, 77);&quot; face=&quot;Cascadia Code&quot;&gt;1010&lt;/font&gt;" style="rounded=0;whiteSpace=wrap;html=1;strokeWidth=1;fillColor=#DFEAF2;fontSize=22;" parent="1" vertex="1">
          <mxGeometry x="440" y="480" width="120" height="40" as="geometry" />
        </mxCell>
        <mxCell id="X5KMLDDobMwLdnI47xeI-7" value="&lt;font style=&quot;color: rgb(77, 77, 77);&quot; face=&quot;Cascadia Code&quot;&gt;1011&lt;/font&gt;" style="rounded=0;whiteSpace=wrap;html=1;strokeWidth=1;fillColor=#DFEAF2;fontSize=22;" parent="1" vertex="1">
          <mxGeometry x="560" y="480" width="120" height="40" as="geometry" />
        </mxCell>
        <mxCell id="X5KMLDDobMwLdnI47xeI-8" value="&lt;font style=&quot;color: rgb(77, 77, 77);&quot; face=&quot;Cascadia Code&quot;&gt;1012&lt;/font&gt;" style="rounded=0;whiteSpace=wrap;html=1;strokeWidth=1;fillColor=#DFEAF2;fontSize=22;" parent="1" vertex="1">
          <mxGeometry x="680" y="480" width="120" height="40" as="geometry" />
        </mxCell>
        <mxCell id="X5KMLDDobMwLdnI47xeI-9" value="&lt;font style=&quot;color: rgb(77, 77, 77);&quot; face=&quot;Cascadia Code&quot;&gt;1013&lt;/font&gt;" style="rounded=0;whiteSpace=wrap;html=1;strokeWidth=1;fillColor=#DFEAF2;fontSize=22;" parent="1" vertex="1">
          <mxGeometry x="800" y="480" width="120" height="40" as="geometry" />
        </mxCell>
        <mxCell id="X5KMLDDobMwLdnI47xeI-10" value="&lt;font style=&quot;color: rgb(77, 77, 77);&quot; face=&quot;Cascadia Code&quot;&gt;1014&lt;/font&gt;" style="rounded=0;whiteSpace=wrap;html=1;strokeWidth=1;fillColor=#DFEAF2;fontSize=22;" parent="1" vertex="1">
          <mxGeometry x="920" y="480" width="120" height="40" as="geometry" />
        </mxCell>
        <mxCell id="8Nz0k8Ud0eOKYZcvg2yD-2" value="&lt;span style=&quot;font-size: 24px;&quot;&gt;Eliminar&lt;/span&gt;" style="text;html=1;align=center;verticalAlign=middle;whiteSpace=wrap;rounded=0;fontColor=#4D4D4D;" parent="1" vertex="1">
          <mxGeometry x="590" y="370" width="60" height="30" as="geometry" />
        </mxCell>
        <mxCell id="8Nz0k8Ud0eOKYZcvg2yD-3" value="" style="endArrow=classic;html=1;rounded=0;strokeWidth=2;strokeColor=#4D4D4D;" parent="1" edge="1">
          <mxGeometry width="50" height="50" relative="1" as="geometry">
            <mxPoint x="619.5" y="410" as="sourcePoint" />
            <mxPoint x="619.5" y="470" as="targetPoint" />
          </mxGeometry>
        </mxCell>
        <mxCell id="WMB4HeqIu5vIaeDRF3zh-1" value="" style="endArrow=none;html=1;rounded=0;strokeColor=none;" edge="1" parent="1">
          <mxGeometry width="50" height="50" relative="1" as="geometry">
            <mxPoint x="440" y="600" as="sourcePoint" />
            <mxPoint x="1040" y="600" as="targetPoint" />
          </mxGeometry>
        </mxCell>
      </root>
    </mxGraphModel>
  </diagram>
  <diagram name="al_medio_1" id="oHTFIFCRcCmjDS_QTn_1">
    <mxGraphModel dx="1370" dy="843" grid="1" gridSize="10" guides="1" tooltips="1" connect="1" arrows="1" fold="1" page="1" pageScale="1" pageWidth="850" pageHeight="1100" math="0" shadow="0">
      <root>
        <mxCell id="JcYMje6Dr6iPlSgl3ygf-0" />
        <mxCell id="JcYMje6Dr6iPlSgl3ygf-1" parent="JcYMje6Dr6iPlSgl3ygf-0" />
        <mxCell id="JcYMje6Dr6iPlSgl3ygf-2" value="" style="rounded=0;whiteSpace=wrap;html=1;strokeWidth=1;" parent="JcYMje6Dr6iPlSgl3ygf-1" vertex="1">
          <mxGeometry x="560" y="520" width="120" height="70" as="geometry" />
        </mxCell>
        <mxCell id="JcYMje6Dr6iPlSgl3ygf-3" value="&lt;span style=&quot;color: rgb(77, 77, 77); font-family: &amp;quot;Cascadia Code&amp;quot;;&quot;&gt;&lt;font style=&quot;font-size: 18px;&quot;&gt;&quot;pistachos&quot;&lt;/font&gt;&lt;/span&gt;" style="rounded=0;whiteSpace=wrap;html=1;strokeWidth=1;fillColor=#DFEAF2;" parent="JcYMje6Dr6iPlSgl3ygf-1" vertex="1">
          <mxGeometry x="680" y="520" width="120" height="70" as="geometry" />
        </mxCell>
        <mxCell id="JcYMje6Dr6iPlSgl3ygf-4" value="&lt;span style=&quot;color: rgb(77, 77, 77); font-family: &amp;quot;Cascadia Code&amp;quot;;&quot;&gt;&lt;font style=&quot;font-size: 18px;&quot;&gt;&quot;maníes&quot;&lt;/font&gt;&lt;/span&gt;" style="rounded=0;whiteSpace=wrap;html=1;strokeWidth=1;fillColor=#DFEAF2;" parent="JcYMje6Dr6iPlSgl3ygf-1" vertex="1">
          <mxGeometry x="800" y="520" width="120" height="70" as="geometry" />
        </mxCell>
        <mxCell id="JcYMje6Dr6iPlSgl3ygf-5" value="&lt;span style=&quot;color: rgb(77, 77, 77); font-family: &amp;quot;Cascadia Code&amp;quot;;&quot;&gt;&lt;font style=&quot;font-size: 18px;&quot;&gt;&quot;castañas&quot;&lt;/font&gt;&lt;/span&gt;" style="rounded=0;whiteSpace=wrap;html=1;strokeWidth=1;fillColor=#DFEAF2;" parent="JcYMje6Dr6iPlSgl3ygf-1" vertex="1">
          <mxGeometry x="920" y="520" width="120" height="70" as="geometry" />
        </mxCell>
        <mxCell id="JcYMje6Dr6iPlSgl3ygf-6" value="&lt;span style=&quot;color: rgb(77, 77, 77); font-family: &amp;quot;Cascadia Code&amp;quot;;&quot;&gt;&lt;font style=&quot;font-size: 18px;&quot;&gt;&quot;nueces&quot;&lt;/font&gt;&lt;/span&gt;" style="rounded=0;whiteSpace=wrap;html=1;strokeWidth=1;fillColor=#DFEAF2;" parent="JcYMje6Dr6iPlSgl3ygf-1" vertex="1">
          <mxGeometry x="440" y="520" width="120" height="70" as="geometry" />
        </mxCell>
        <mxCell id="JcYMje6Dr6iPlSgl3ygf-7" value="&lt;font style=&quot;color: rgb(77, 77, 77);&quot; face=&quot;Cascadia Code&quot;&gt;1010&lt;/font&gt;" style="rounded=0;whiteSpace=wrap;html=1;strokeWidth=1;fillColor=#DFEAF2;fontSize=22;" parent="JcYMje6Dr6iPlSgl3ygf-1" vertex="1">
          <mxGeometry x="440" y="480" width="120" height="40" as="geometry" />
        </mxCell>
        <mxCell id="JcYMje6Dr6iPlSgl3ygf-8" value="&lt;span style=&quot;color: rgb(77, 77, 77); font-family: &amp;quot;Cascadia Code&amp;quot;;&quot;&gt;1011&lt;/span&gt;" style="rounded=0;whiteSpace=wrap;html=1;strokeWidth=1;fontSize=22;" parent="JcYMje6Dr6iPlSgl3ygf-1" vertex="1">
          <mxGeometry x="560" y="480" width="120" height="40" as="geometry" />
        </mxCell>
        <mxCell id="JcYMje6Dr6iPlSgl3ygf-9" value="&lt;font style=&quot;color: rgb(77, 77, 77);&quot; face=&quot;Cascadia Code&quot;&gt;1012&lt;/font&gt;" style="rounded=0;whiteSpace=wrap;html=1;strokeWidth=1;fillColor=#DFEAF2;fontSize=22;" parent="JcYMje6Dr6iPlSgl3ygf-1" vertex="1">
          <mxGeometry x="680" y="480" width="120" height="40" as="geometry" />
        </mxCell>
        <mxCell id="JcYMje6Dr6iPlSgl3ygf-10" value="&lt;font style=&quot;color: rgb(77, 77, 77);&quot; face=&quot;Cascadia Code&quot;&gt;1013&lt;/font&gt;" style="rounded=0;whiteSpace=wrap;html=1;strokeWidth=1;fillColor=#DFEAF2;fontSize=22;" parent="JcYMje6Dr6iPlSgl3ygf-1" vertex="1">
          <mxGeometry x="800" y="480" width="120" height="40" as="geometry" />
        </mxCell>
        <mxCell id="JcYMje6Dr6iPlSgl3ygf-11" value="&lt;font style=&quot;color: rgb(77, 77, 77);&quot; face=&quot;Cascadia Code&quot;&gt;1014&lt;/font&gt;" style="rounded=0;whiteSpace=wrap;html=1;strokeWidth=1;fillColor=#DFEAF2;fontSize=22;" parent="JcYMje6Dr6iPlSgl3ygf-1" vertex="1">
          <mxGeometry x="920" y="480" width="120" height="40" as="geometry" />
        </mxCell>
        <mxCell id="29UAbcbgHH3k0gAgGfRB-3" value="" style="shape=image;verticalLabelPosition=bottom;labelBackgroundColor=default;verticalAlign=top;aspect=fixed;imageAspect=0;image=data:image/png,iVBORw0KGgoAAAANSUhEUgAAAgAAAAIACAYAAAD0eNT6AAAACXBIWXMAAA7DAAAOwwHHb6hkAAAAGXRFWHRTb2Z0d2FyZQB3d3cuaW5rc2NhcGUub3Jnm+48GgAAIABJREFUeJzt3XmcXFWd9/Hv71Y13WFTxAUiChjo6oBDNAHEQSUqEjtdt5Lg9KA4ijNqxg119HEZR512m3F51JHRUTM6LrgNJSSpqk4bjNIqCGLC4hJSlSCLQABBNB1Id1J9z/NHGh7AhHT6nlu3ls/7H3klXd/ze9HS99fnnHuO6WGWL1/edccdd7zGzN4s6SRJ9rC/vt7Mvrxt27b/Hh0drQsAALSshx7wYRgeK+l/JZ2yj89cK2lpuVy+NcnCAABAckyS8vn8U83scknHTOtDZrdJek6pVLojwdoAAEBCAkkys//RNB/+kuScO8o5962kigIAAMkKwjA8S9JZM/jsC6c+CwAAWkwg6bwYn4/zWQAAkJJA0qkxPn+Gr0IAAEDjBJJmx/j8UxctWvQEX8UAAIDGCCRNxAno7u6e66kWAADQIIGZ3RInwDnX56sYAADQGIFz7oaYGcwAAADQYgIzi9sAnOilEgAA0DBBFEVxG4D5XioBAAAN42MG4MmFQiHOmwQAAKDBgp6enk2SHoiZ82wfxQAAgMYIisXipKTfxgmJoogGAACAFhJM/e81cULMjAYAAIAW8mADcG3MHBoAAABaSCBJzrm4DcAxHAkMAEDrCCRp1qxZv5ZUj5Fj3d3d8/yUBAAAkhZIUrFY3CGpGjOL8wAAAGgRwcP+OdZGQLEPAACAlvHwBiDWPgDnHA0AAAAt4qEGwMNGwFwYhgfGzAAAAA3wUAOQzWavk+RiZGWiKFoQvyQAAJC0hxqAVatW/UnSzXHCzOy0uAUBAIDkPXwPgMxsQ5wwM3tOvHIAAEAjPKIBcM79Imbec2N+HgAANMAjGoAoiuI2ALP7+/uPipkBAAAS9ogG4MADD1wvaVecwEwmwz4AAACa3CMagKkTAX8dJ5B9AAAANL9gD392VcxMZgAAAGhyf9EAeNgIuGBwcPCAmBkAACBBf9EARFEUdwZg1o4dOzgQCACAJvYXDcCaNWs2S7o3VmgQPD/O5wEAQLL2tAfASYq1DOCcowEAAKCJ7akBkJldHjP39KGhoT1mAwCA9O3xIT05ORm3ATjs2muvPTFmBgAASMgeG4Aoiq6WNB4nOIoilgEAAGhSe2wARkZGJiStjxPMPgAAAJrXXtfpnXM/ixNsZjQAAAA0qb02AGYWqwGQ9NQwDI+NmQEAABKw1wagp6fn55Im44Sb2QvifB4AACRjrw1AsVj8s6TfxAl3zr0wzucBAEAyHvNd/bj7ACSdGfPzAAAgAY/ZAPjYB7B48eLemBkAAMCzx2wAstnsqHYfDTzzAYLgRXE+DwAA/HvMBmDlypV3S/ptnAHMjH0AAAA0mX2e1++c+1HMMV7MvQAAADSXfT6YzeyymGMcvn79+r+KmQEAADzaZwPQ09MzqvjnAbAPAACAJrLPBmDqPIBrYo5DAwAAQBOZ7tp83H0AZyxfvrwrZgYAAPBkug1A3H0Ah2zdunVBzAwAAODJdBuAyyVNxBnIzF4S5/MAAMCfaTUA5XL5AUlXxRnIObcozucBAIA/034/3zkXdxngtEWLFj0hZgYAAPBg2g2AmcXdCJg54IADuBwIAIAmMO0GYGxs7CpJf44zGMsAAAA0h2k3AKOjo3XFfB3QzPolWZwMAAAQ336d0e+c+0HM8Y4sFAocCwwAQMr2qwGYnJwc8TDmSz1kAACAGParARgZGblNMa8Hds7RAAAAkLKZXNMbdxngef39/YfGzAAAADHsdwNgZmtjjtmVzWZfGDMDAADEsN8NwK5du34qaXvMcXkdEACAFO13AzAyMjIh6Scxx+2P+XkAABDDTPYASFLcZYBjBgYGnhkzAwAAzNCMGgAP5wEoCIJC3AwAADAzM2oAKpXKZkk3xhybBgAAgJTMdAlAzrm4hwKdcvbZZx8ZMwMAAMzAjBuAIAiG445dr9fDmBkAAGAGZtwA7Nq16zJJY3EGd87RAAAAkIIZNwAjIyMTHg4FekmhUDgkZgYAANhPM24AJMk5V4o5fncURWfGzAAAAPspVgOwc+fOYUn1OBlmxtsAAAA0WKwGYO3atX+UdEXMGsLBwcFMzAwAALAfYjUAkpdlgMPHx8efG7cOAAAwfbEbgGw2uzpuBssAAAA0VuwGYNWqVTdK2hgnwzm3LG4dAABg+mI3AFPiLgMcVygUcl4qAQAA++SlAfCwD0DOuZf5qAUAAOyblwbg5JNP/oWkO+NkmNmgj1oAAMC+ma+gMAy/Ium1cTLMrK9UKlU9lQQAAPbC1x4AmRnLAAAAtAhvDYBzbp2k+2PG/I2PWgAAwGPz1gCUy+UHJMW9IvjZ+Xz+eB/1AACAvfPWAEiSc64YNyMIAmYBAABImNcGwMzWKOYygHOOtwEAAEiY1wZgahlgTcwYlgEAAEiY1wZAksyMZQAAAJqc9wbAOTcslgEAAGhq3hsAX8sAhULhOB/1AACAv+S9AZD8LANIYhYAAICEJNIAsAwAAEBzS6QBKJfLD5jZSMwYlgEAAEhIIg2A5OdQIEmv8JABAAAeJbEGQFJF8ZcBXiWPNxYCAIDdEmsAPC0DHJ/P50/xUhAAAHhIkjMAXpYBzOzvfNQCAAD+v0QbgImJiWFJD8SMefny5cu7fNQDAAB2S7QBuPTSS+93zpVixjzpzjvvPMtLQQAAQFLCDYAkBUHwrbgZURSxDAAAgEeJNwDbtm1bK+muOBlmtnRwcPBxnkoCAKDjJd4AjI6O1iX9b8yYnh07dpztox4AANCABmBK7GUA3gYAAMCfhh2yE4bhDZL6YkREQRAcs3r16t/7qgkAgE7VqBkAOee+HTMicM5xNDAAAB40rAGIouhCSS5OhnPuPE/lAADQ0RrWAKxZs+YWSVfEjDkhn8/P81EPAACdrGENwBQ2AwIA0AQa2gBEUXSRpImYMecODg5mfNQDAECnamgDMDw8fJ+k4ZgxsycmJl7qox4AADpVo5cA5JyLvQzgnHudj1oAAOhUDW8AZs2aNSzp3pgx+UKhMNtHPQAAdKKGNwDFYnGnpO/HjMlK4pVAAABmqOENwBQvywBDQ0Np1Q8AQEtL5QFaLpevkLQ5ZswzNmzYsNBDOQAAdJy0foN2kv7HQw6bAQEAmIHUptDN7GuSdsWMeVkYhk/0UQ8AAJ0ktQagVCrdZWaVmDEHmNkrvRQEAEAHSXsT3VfjBjjn/tFHIQAAdJJUG4D58+ePSLo1ZszcMAxP81EPAACdItUGYGhoKJL09bg5zrnXx68GAIDOkfYSgIIg+IqkyTgZZnZOf3//oZ5KAgCg7aXeAKxevfr3ZrYuZsxBXV1dL/dSEAAAHSD1BkCSoij6StwMLggCAGD6mqIBmDVrVknS3TFjTikUCs/2UQ8AAO2uKRqAqQuCvhk3h82AAABMT1M0AJJkZl/R7iOC4zhvYGDgMB/1AADQzpqmASiVSlUzuzxmzIFBEHBNMAAA+9A0DYDkZzOgpLdwTTAAAI+tqR6Us2bNKkq6L2bMnPXr17/URz0AALSrpmoAisXiDknfjZtjZud7KAcAgLbVVA2AJDnnVniIWbR48eJeDzkAALSlpmsAKpXK9ZJ+GjPGMpnMm33UAwBAO2q6BkCSnHP/6SHm77kfAACAPWvKBmD79u2rJP0+ZswhXV1dr/ZRDwAA7aYpG4DR0dG6pC/FzXHOvZVXAgEA+EvN/HBcIWk8ZsbxGzZsONNHMQAAtJOmbQDK5fI9kv7XQxSvBAIA8ChN2wBIkpl9zkPMAK8EAgDwSE3dAJRKpWudcz+PGWPZbPYfvRQEAECbaOoGQJKCIIj9SqBz7h8GBwcP9lEPAADtoOkbgCOOOOJiSbfHjHn8jh07/s5HPQAAtIOmbwBWrFixS7vfCIjFzN4iyeJXBABA62v6BkCSstnslyRNxIw5MQxDbgkEAEAt0gCsXLnybjP7voeod3rIAACg5bVEAyBJk5OTn/UQ8+IwDOd7yAEAoKW1TAMwPDy8QdLVcXPM7B0eygEAoKW1TAMgSWbm45XAc8IwfLqPegAAaFUt1QB0d3dfJOnOmDFZSW/1UA4AAC2rpRqAYrG40zkX+5ZASa8fHBx8nIccAABaUks1AJLU1dX1eUn3x4w5dGJiguOBAQAdq+UagJUrV95rZhfGzXHOvXVwcPAAHzUBANBqWq4BkKQoij4jKYoZ89SJiQmOBwYAdKSWbAAqlcpmSaW4Oc659w0ODmY8lAQAQEtpyQZgyqc9ZMzZsWPHMg85AAC0lJZtAMrl8uWSroybEwTBv4hLggAAHaZlG4ApsWcBnHPPGhgYOMtHMQAAtIqWbgAWLFiwUtKWuDlBEPyzh3IAAGgZLb0BbnR01OVyuUlJAzGjjunt7b20Vqvd5qMuAACaXUvPAEjS2NjY/0jaGjfHzJgFAAB0jJZvAEZHR8clfc5DVL5QKJzkIQcAgKbX8g2AJNXr9S9K+lPMGHPO/YuPegAAaHYtvQfgQVu2bJno7e19nJk9P2bU3OOPP/6SzZs33+2lMAAAmlRbzABIUldX139IeiBmTBAEwft81AMAQDNrixkASdq0adP9vb29R5rZqTGjTsjlchfVarV7vBQGAEATapsZAEnKZDKflLQzbowkZgEAAG2tbWYAJKlarW7r6+s7XtK8mFHPPO644763efPme33UBQBAs2mrGQBJmpyc/LjiXxWcyWQynAsAAGhbbdcADA8P3yDp+x6iXpXP54/3kAMAQNNpuwZAkoIg+Kg8zAJIeq+HcgAAaDptew1uGIYXSzo7ZsykmZ1YKpWqPmoCAKBZtOUMgCQ55z4sycWMyTjn3u+jHgAAmknbNgCVSuV6SSUPUedyRwAAoN20bQMgSWb2IcWfBQgkfcBDOQAANI223QPwoDAMy5LyMWOcmS0olUrX+qgJAIC0tfUMgCRFUTSk+LMA5pz7kIdyAABoCm3fAAwPD2+Q9AMPUWEYhqd5yAEAIHVt3wBIUhRFH1D8WQBJ+rCHDAAAUtdWdwHszebNm7f29vbON7NczKg5uVxutFar3eKlMAAAUtIRMwCSlMlk3q/4pwNK0ifVAZsnAQDtrSNmACSpWq3encvlTpR0Ysyop/b29l5fq9U2+agLAIA0dMwMgCRNTk5+QFI9bo6Z/fvChQuzHkoCACAVHdUArFmzpibpux6icocccshrPOQAAJCKjmoAJCmTyXxQ0k4PUR8Kw/BADzkAADRcxzUAq1atutk59w0PUbMlne8hBwCAhuu4BkCSzOyjkiY8RL132bJlh3vIAQCgoTqyASiXy7dK+rKHqMdPTk6+x0MOAAAN1ZENgCRls9mPSRqLm+OcO3/JkiVP81ASAAAN07ENwMqVK+92zn3aQ1SPc+6jHnIAAGiYjm0AJGnWrFmflnRn3Bzn3KsKhcLJHkoCAKAhOroBKBaL283sYx6izDn3fz3kAADQEB3dAEjSEUcc8WVJWzxEnZHP55d5yAEAIHFcaiMpDMNXSPqOh6jf1ev1E0ZGRny8YggAQGI6fgZAksrl8vfMbIOHqGdks9k3esgBACBRNAC7Oefc+zxlfZDDgQAAzY4GYEq5XL5U0o88RB1Wr9ff7yEHAIDE0AA8jHPunZIiD1FvXrx4ca+HHAAAEkED8DCVSuV6ST4uCurKZDKf9JADAEAiaAAexczeL+l+D1FLwjDs95ADAIB3mbQLaDbVanWst7e3y8wWeog7dc6cOSu2bNky6SELAABvmAHYg1mzZn1S0u89RB3f1dX1Fg85AAB4xUFAexGG4Wskfc1D1FhXV1fukksu2eohCwAAL5gB2IsFCxZ8U9J6D1GH7Nq1y8d9AwAAeMMMwGMIw/AMSaMeolwQBM9dvXr1LzxkAQAQGzMAj6FcLv9E0moPUeac+8LQ0BD/vgEATYEH0j5MTk6+W9LOuDnOuQXr168/z0NJAADExmuA+7B58+Z7e3t7DzGz0+NmmdlpJ5xwwlc2bdo07qM2AABmihmAaQiC4KOS7vAQ9ZR6vf4RDzkAAMTCDMA0VKvVnb29vfeY2bK4WWZ28ty5c9dWq9XbfdQGAMBM8BbA9FmhUPiJc+75sYPMNnR3dz+nWCxyQiAAIBUsAUyfc869XR5uC3TOLZiYmFjuoSYAAGaEJYD9UKvVtuZyuadJmu8h7vnPfOYzv3HDDTds95AFAMB+YQZgP2Wz2X+R9CcPUYfu2rXrEx5yAADYb8wA7KdNmzbdn8vlJiS91EPcvFwu97NarXaThywAAKaNGYAZGBsb+7ykX/vIMrMv9vf3d/vIAgBgumgAZmB0dLRuZm+T5OJmOed6u7q63uGhLAAApo3XAGMoFArfcs690kPUDjM7qVQqbfGQBQDAPjEDEM87Jd3nIWeWc+6/RUMGAGgQNgHGUK1W78/lcmOSBjzEHdPX13drtVq91kMWAACPiRmAmBYsWPAlSb/wkeWc+0yhUJjtIwsAgMdCAxDT0NBQFEXRmyX5ONb3cc65z3rIAQDgMbEE4MHmzZu39vX1PVnSqR7iTszlctfVarWqhywAAPaIGQBPdu3a9T75uTJYkv5r6dKlj/eUBQDAX6AB8GRkZGSbpHd5ipsdRdFHPWUBAPAXeO3MszAM10l6sYeoyMxeUCqVrvCQBQDAIzAD4JmZvUHSDg9RgXPuK4ODg7M8ZAEA8AhsAvSsWq3+MZfL1SWd6SHuifV6vbtWq/3QQxYAAA9hBiABY2NjnzazDZ7i3jEwMPB8T1kAAEiiAUjE6OhoPYqi10ra5SEuyGQyLAUAALxiCSAhtVrtrr6+vkMkne4h7vB6vX5grVZb6yELAABmAJLU3d39r5J83fD3tkKh8AJPWQCADsdrgAnL5/MLzezH8vPv+qaenp6TisXidg9ZAIAOxgxAwiqVyqikr3uKO3bHjh0cEAQAiI0GoAF27tz5fyTd5SPLzM4Pw/AMH1kAgM5FA9AAa9eu/aOZne8pLpD01cHBwYM95QEAOhANQIOUSqWipIs8xc0ZHx/n2mAAwIzRADTWm+VpKUDS6/L5/N94ygIAdBgagAYql8v3mNlyX3lm9sXFixcf4SsPANA5aAAarFQqlSR911PcE7PZ7NfF65wAgP1EA5CCbDZ7vqQ7fWQ55xYVCoU3+MgCAHQOfnNMST6fD82s5CnuATObXyqVqp7yAABtjhmAlFQqlbKkb3mKO9A5953BwcEDPOUBANocDUCKMpnM+WZ2m6e4+RMTEx/wlAUAaHMsAaTM81LAZBAEL1i9evXPPeUBANoU1wGnrFar1XK53FGS5nuIC5xzZx177LHfuPHGG3d4yAMAtCmWAJrAxMTE282s5inuaQcccMAKT1kAgDbFDEATuPHGG3flcrmrJP29/HxPTujt7b2rVqut95AFAGhDNABNolqt3pHL5bKSvNz0Z2ZnHnfcccObN2/2ct4AAKC9sATQRMbGxj4i6Ree4noymcxFhULhEE95AIA2QgPQREZHR+uZTOaVksY8RR7vnOPWQADAX2AJoMls2rTpvlwu90dJeU+R83t7e7fUarVfe8oDALQBzgFoUmEYliSFnuK2T05OLlizZo2vNw0AAC2OJYAmVa/XXytPFwZJOjibzXJUMADgITQATWpkZOQPkl4vyfnIc84tGB8f/5SPLABA62MPQBOr1Wq13t7ew8zsNE+Rz+nr67uxWq3+ylMeAKBFMQPQ5CYnJ98j6Rpfec65Ly5ZsuQEX3kAgNZEA9DkRkZGJszsHEnbPEUeHEXRJZwPAACdjQagBZRKpS3OueUeI3NRFHFfAAB0MPYAtIharfbbXC53rKRn+cgzs2fmcrk/1Gq1X/rIAwC0FmYAWsjExMSbJd3gMfI/lixZ8tce8wAALYKDgFrMwMDAM4MguFrSLE+Rv5c0v1wu3+MpDwDQApgBaDHDw8O/MbN3e4x8mqTvDQ4OshwEAB2EH/otqFqtXt3X1zdP0lxPkc+o1+uq1WqjnvIAAE2OGYAWNTk5+VpJv/MY+YF8Pr/MYx4AoImxB6CF5fP5eWZ2pfztB9geRdFzh4eHf+MpDwDQpJgBaGGVSuV659zbPEYeHARBOQzDJ3rMBAA0IfYAtLharXZNLpc7WtKzPUU+3jk3f/bs2d+9+eabI0+ZAIAmwwxAGxgbG3uTPN4XYGZnHnroof/mKw8A0HxoANrA6Ojo+NR9AX/2lemce1cYhq/xlQcAaC5sAmwj+Xw+NLPV8vd9HZf0gnK5zHHBANBm2APQRmq1Wi2Xyx0sydfxvllJi0488cTvbNq06X5PmQCAJsASQJsZGxv7Z0k/9Rj59Hq9XhwcHDzAYyYAIGU0AG1mdHS03tXV9XJJWz3GvmB8fPzLHvMAACljCaAN3XDDDdtzudwVkl6l3dP4Pjwrl8tN1Gq1yz3lAQBSRAPQpmq12m29vb23mpnP431f3NfXV61Wq5wUCAAtjgagjdVqtev7+vqeJOlUT5EmaWDu3LnrqtXq7Z4yAQApYA9Am9u2bdvbJV3mMXJWFEWrwjB8usdMAECD0QC0udHR0Xo2mx2U35sDj5C0ZnBw8HEeMwEADUQD0AFWrlx5r3PubEk+3+U/cXx8/LuDg4MsIwFAC6IB6BCVSuV6SedJch5j+8fHxz/lMQ8A0CD89tZBarXaDb29vQea2ekeY5/b19d3d7VaXe8xEwCQMGYAOszJJ5/8z5LW+Mx0zn2+UCic7TMTAJAsLgPqQP39/Ydms9krJD3TY+wOSWeVy2UOCgKAFkAD0KHCMDxW0lWSnuwx9l5JzyuXy5s8ZgIAEsASQIcql8s3mdnZkiY8xh5uZj9csmTJ0zxmAgASQAPQwUql0hWSXi2PbwY4546KomjN0qVLH+8rEwDgH28BdLharfbbXC6XkXSGx9gnO+dOmzNnzve2bNky6TEXAOAJDQBUq9VG+/r6jpN0ksfYY8zsuHPPPXfl6Oioz7MHAAAesAQASXLbtm17naQrfYaa2cvXr1//7z4zAQB+MAMASdLNN99cP/HEE8tRFA1K8rZ+b2an53K5P9dqtat8ZQIA4uM1QDzCwMDA3CAIfi6PTYB2bzJcXi6Xv+IxEwAQA0sAeITh4eEbJJ0jaZfHWJP0pTAMX+YxEwAQA0sA+Au1Wu3GXC53o6Sz5W+WKJC0NJfLbajVals8ZQIAZogGAHtUq9V+3dfXt1PSiz3GZiQtO/7443+2efPmWz3mAgD2Ew0A9qparV6ey+WeIOk5HmO7zOzsXC53aa1W2+oxFwCwH9gDgMe0YMGCf5J0sefYx0n6wcDAwFzPuQCAaeItAOzTwoULew499NBLnXPP95lrZrcFQfD8VatW3ewzFwCwb8wAYJ9GR0fHu7u7Q0m/8pnrnDtqcnLyh4sXLz7CZy4AYN+YAcC0hWH4dEk/l/RUz9G/kvTicrl8j+dcAMBeMAOAaSuXy7dGUfRSSfd5jj5J0rply5Yd7jkXALAXNADYL8PDw78xs5dJmvAcPa9er186MDBwmOdcAMAe0ABgv5VKpcvM7G8l1T1Hzw+C4EeLFi16gudcAMCjsAcAM1YoFP7OOfcN+W8kr4mi6Mzh4WHfSw0AgCkcBIQZq1arv8rlcvdIGvAcfaSZnTFnzpzili1bfC81AABEA4CYarXaL3O5XF3SizxHHxUEwcK+vr6LqtXqTs/ZANDxaAAQW61W+1lvb++BZna65+inOefO6OvrK9IEAIBfNADwolar/SiXyx0paYHPXDN7mqS/PuaYY4o33nijzyuKAaCj8RYAfHELFix4o6TvJpB9Rnd39w/6+/sPTSAbADoSbwHAq+XLl3dt3br1Ekl539lmtiGTySxauXLlvb6zAaDT0ADAu8HBwVnj4+NrJC30nW1m1+3ateuskZGRP/jOBoBOQgOARIRheKCkYSXQBEja5Jw7s1Kp3J5ANgB0BBoAJOass846qLu7e1jSGQnE3xxF0YuHh4d/l0A2ALQ9GgAkaqoJWCPpBQnE3zo1E7A5gWwAaGu8BYBEXXrppffX6/VQ0i8SiH+6mf1syZIlf5VANgC0NRoAJG5kZGRbT0/PIklXJxD/lCiKfpLP509NIBsA2hZLAGiYgYGBwzKZzA+dc14PC5pyn3NuoFKpXJlANgC0HWYA0DDDw8P3BUFwpqT1CcQfZmbrCoWC74uJAKAt0QCgoVatWvWnTCbzEjPbkED8gc651WEYvi6BbABoK9wFgIbbtGnTeG9v7yWSXirpKZ7jA0lhb2/vA7Va7eeeswGgbbAHAKkZGBg4LAiCEUnPSWiICxYsWPBPQ0NDUUL5ANCyaACQqsHBwYPHx8dLkl6YRL6ZffuII474+xUrVnCTIAA8DA0AUjd1bPAqSS9JIt85ty4IgrNLpdJYEvkA0IpoANAU+vv7u7PZ7PckLU1oiF/W6/UBLhECgN14CwBNYWRkZKKnp+ccSRcnNMQp2Wz2J2EYPj2hfABoKTQAaBrFYnHnVBPw9YSGmCvpqkKhcHJC+QDQMlgCQDOyfD5/gZm9JaH8+yW9slwur04oHwCaHucAoCnVarUf5HK5QyU9N4H4AySd09fXZ9VqdTSBfABoejQAaFq1Wm1tLpc7QNLzE4g3SQt7e3ufOG/evEs3btzoEhgDAJoWDQCaWq1W+3FfX9+92n1qoPclKzM7tV6vnzZnzpzSli1bJnznA0CzYg8AWkKhUDjbOfdtST0JDfFrSflyuXxrQvkA0FRoANAywjB8kaSVkg5NaIitURSFw8PDSVxUBABNhdcA0TLK5fKPzezFku5OaIgjgyD4SaFQKCSUDwBNgz0AaCnVavWO4447rhQEQV7SYQkMcYCkv+3r67u/Wq1emUA+ADQFlgDQkhYvXnxENpsdcc49K6kxnHPfM7PXlsvlB5IaAwDSwhIAWtKaNWvu7O7ufr6kHyY1hpm93MyuWLx48dFJjQEAaWEGAC1t6hKhCyUNJjjMPc65wUqlMprgGADQUOyID1MSAAAcBElEQVQBQEvbsmXL5Lx58y6ZnJw8XNKpCQ1zoJmd29vbe1etVrsmoTEAoKGYAUDbKBQKy51zX5CUTXCYFT09PecXi8WdCY4BAImjAUBbKRQKL3XO/a+SOytAkq4ws5eVSqW7EhwDABJFA4C2UygUTnLOVSQ9LakxzOw259zZ5XL5l0mNAQBJ4i0AtJ1SqfSrIAhOl3R9UmM4546SNJrP51+d1BgAkCRmANC2BgcHDx4fH/+OpDDhoS6U9AbOCwDQSngLAG1r48aNO+fNm3dRvV4/TNJzEhxqnpkN5HK5H1Wr1T8mOA4AeMMMADpCoVB4m3Pu00q26R2T9LpyuXxRgmMAgBc0AOgYhUKhMHWl8MEJDuMk/ceRRx75nhUrVuxKcBwAiIUGAB1lyZIlfxVF0SpJz0h4qF9mMpm/XbVq1c0JjwMAM0IDgI6zaNGiJxxwwAHfk/SShIe6x8xeVSqVfpDwOACw39gEiI5z44037pg3b9536vV6t6TnJTjUgZJemcvlZs2bN++yjRs3ugTHAoD9wgwAOloYhq+Q9BXtflgn6UpJryyXyzclPA4ATAsNADpeoVB4tnNupaSkr/39s6Q3lsvl7yY8DgDsEw0AIKm/v/9J2Wz2IkkLGzDchT09PW8qFovbGzAWAOwRewAASVu2bHlg9uzZ3+7u7k760CBJmlev11/R29t7da1Wuy3hsQBgj5gBAB5l6lrh/5R0QMJD1c3sY/Pnz//w0NBQlPBYAPAINADAHhQKhdOnrhV+atJjOefWBUFwXqlUuiPpsQDgQdwGCOxBqVS6QtKzJCX+Dr+Znemc+20+nz8n6bEA4EHsAQD2olarPXDuued+94477nBm9gIlO2PWY2Z/09fXd8TRRx89euONN3KMMIBEsQQATEOhUHihc+47ko5owHA3mdlrS6XSZQ0YC0CHYgkAmIZSqXSZc+5kSZc3YLhjnXM/CsPwy2edddZBDRgPHaa/v7877RqQPpYAgGmq1Wpjs2fPvrCnp8dJSnpJwCQtyGazL8/lctfXarVbEhwLHWbu3Lnn9Pb2Hl6r1W5OuxakhyUAYAby+XxoZt+QdFgDhou0+7jifyqXyw80YDy0ucWLFx+dyWR+65zLVyqV0bTrQTpoAIAZCsPw6ZIuUvIHBz3oxiiK/n54ePhnDRoPbSwMwy2SjqAJ6FwsAQAzVKvV/jxnzpwLzewQM3uOkm+on2Bmr8rlcgfOmTPn8i1btkwmPB7aWC6XO0HSc81ssLe39+csB3QeNgECMYyMjExUKpW3B0FwlqRGHOSTlfTebDa7IQzDUxowHtqUmf1o6h8PMrNKoVB4YaoFoeFoAAAPVq9eva5erz9LUrlBQ54o6edhGH5ucHDw4AaNiTaSyWR+rN37SyTpIOccTUCHYQ8A4JcVCoXXO+c+K+nABo15u3Pu/EqlsrJB46FNFAqF9c65BQ/7owfM7GWlUinxEzCRPmYAAL9cqVRaEQTBKZKub9CYTzWzS8IwLPf39x/VoDHRBpxz6x71Rwc651aHYfi3qRSEhmITIJCAarX6h9mzZ3+9u7u7S9JfqzGzbb1BELy2r69vxyte8Ypfjo6OugaMiRY2d+5cOede/ag/zkg6u6+v785qtbohjbrQGCwBAAkrFAovcc59Q9KRjRrTOfdz59w/Dg8P/6ZRY6L1LFy4sOeQQw75o6RZe/hrZ2YfLpVKQw0uCw3CDACQsGq1+rsTTzzxwiiKTpDU24gxzexpZvb6XC73xGOOOeZnXC6EPbn55pvrvb29C83sGXv4a5O0MJfLPaFWq61tdG1IHg0A0ACbNm26v1arfbevr+8OSQslNeIs9oyk50wdJ7ypVqvd2IAx0WJyudxTJZ35GF/ynL6+vmOPPPLIys033xw9xtehxbAEADRYGIbHSvof7W4EGsVJ+l69Xn/3yMjIbQ0cF01uYGBgQRAE66fxpaskvZLjqNsHDQCQjgdfF/y0pEa+x/+AmX1q27ZtHx8dHR1v4LhoUkNDQ8GGDRvukvTEaXz51WZWKJVKdyVdF5JHAwCkaGo24KuSGn0Ay++dc++vVCrfbPC4aEKFQqHonPubaX75TZIWl8vlTUnWhOTRAADpS2s2QJJ+HEXR23hboLPl8/k3mNkX9+Mj90laVi6Xf5JUTUgeBwEB6XOlUmlFFEXzJDX6B+qLgiC4ZupI4cc1eGw0iSAIHn0g0L4cJunSfD7/yiTqQWMwAwA0lwdnAz4j6aAGj32vmX2ku7v788VikZsGO0wYhr+TdOx+foyzAloYrwECTaZarW7I5XKXOOfmm9nTGjj0gZJeWq/XXzp37txfV6vV2xs4NlLW29t7opkt2PdXPsKDZwUcNW/evLUbN26kcWwhzAAAzcvy+fyrzOwzkg5v8NhO0vfN7H2lUmlLg8dGCvL5/Dlm9r0YEVdMXSTEGwItggYAaHKLFy8+IpPJfFLSq1IYfpekr5nZB/nB3t6WLVt2eL1ev1sx9oaZ2W2Tk5NLh4eHuUOgBdAAAC0in88vNrMvSDomheG3S/qCmX2sVCqNpTA+GiAMw2skPTtmzP2SziuXyxd7KAkJYg8A0CJqtdrmefPmrZicnKxr9w2Djfzv9wBJz5N0Xl9f3/Yjjzzyeo6FbT99fX1zJJ0eM+YASYO5XG7Wueee+2NupWxezAAALahQKJzknPuypNNSKmHT1LJAMaXxkYCBgYFFQRD8wGNkpV6vv3JkZGSbx0x4wjkAQAsqlUq/WrBgwelm9o+S0vjh2uecuygMwysHBgaen8L4SEAQBD+TNOExMp/NZn+6dOnSYzxmwhNmAIAW19/ff1RXV9cFzrllKZXgzOziycnJDw4PD9+QUg3wJAzDH8v/0dR/lvSacrm8ynMuYmAPANDitmzZsq1arf5vb2/v5VPvcT+5wSWYpBPM7I25XO6ZuVzu17Va7Z4G1wBPcrncUZJe5Dm2R9I57AtoLswAAG1k+fLlXXfeeeebnHMfkpTW0b6RpIvN7AOlUqmaUg2YoXw+f6qZ/SLBIS7LZrMvX7ly5d0JjoFpoAEA2tDUO90flPQWpbfXh0agBQ0ODmbGx8fvlvSEBIf5fRAEg6tXr06y0cA+0AAAbWxgYGCBmV1gZn+dYhmRpIsnJyffv2bNmlqKdWCawjC8WNLZCQ8zYWbvKZVKn0t4HOwFDQDQ/h48UvgTko5IsY5I0sXOuX+pVCqbU6wD+1AoFN7onPuvBg331Z6envOLxeKOBo2HKTQAQIfo7+8/NJvNflDSWyV1pVjKLknfjKLo34aHh3+XYh3Yi8WLF/dmMplGLtvcEATBOatXr/51A8fseDQAQIfJ5/PHm9lnJQ2kXEokaY1z7iOVSuXqlGvBo4RheJMae+z0DjP7Z5YEGocGAOhQS5YsOTOKok8q/tnvPlzhnPtEpVIpp10Idsvn8181s39o9Lhm9v3u7u7XFYvFPzd67E5DAwB0NisUCn/jnPu4pGekXozZdVEUfXb79u3fGR0draddTycLw/BcSd9OY2wzq9Xr9XPWrFlzXRrjdwoaAAAaHBw8YGJi4jXOuY9KelLa9Ui6ycw+193dvYLNYelYtmzZk+v1+p1K7znx4FsCF0ji4KAE0AAAeMjAwMBhQRC8R7s3Cs5Kux5Jd5vZFycmJi5Yu3btH9MuptOEYXidpHkpl3FxFEWvHx4evi/lOtoORwEDeMjmzZvHa7Xaulwud6F2HwRzktL9ReEgSQszmcybcrnc4XPnzr2hWq1ys1yD9PX1HS/puSmXcYKZndfX1/fbarW6JeVa2gozAAD2asmSJSdEUTQkaTDtWqZEktYEQfC51atX/0hMDScqDMN+SWvSrmOKk/Sf9Xr93SMjIz5vLOxYNAAA9ikMwxdJ+rikU9Ku5WF+bWafd859q1wuP5B2Me0oDMMDJf1RUnfatTzMb8zslaVS6VdpF9LqaAAATNvUq4P/puZqBLZJ+p6kz5bL5U1pF9NuwjAclXRG2nU8yrikoQULFnxqaGgoSruYVkUDAGC/TTUC/y7p5LRreZjIOfdjSRdUKpWKWB7wolAofMA59+G069iLH5rZa0ql0h1pF9KKaAAAzNiSJUvOdM593Dm3IO1aHmWzpK9GUbSC3ePxhGF4mqQr067jMdxtZq8vlUqltAtpNTQAAOKyfD6/1MyGtPutgWayzcwulPTVUql0bdrFtKKp64HvkfT4tGvZh+LOnTvfwOui00cDAMAXy+fz+alGYH7axezBRknflPTVcrl8T9rFtJIwDFdJWpJ2HdNwp3NuOUdKTw8NAADfHmwEPqTmuGfg0SYklYIgWMGrhNMThuH5ki5Iu479cKGZvblUKo2lXUgzowEAkIihoaFg/fr1Z5vZu9Vcbw083I2Svuac+3qlUrk97WKa1cDAwNwgCDamXcd+ukXSP5TL5R+nXUizogEAkLgwDJ8n6T3afQVxM/7ciZxzPw6CYEV3d/fqYrG4M+2Cmk0YhrdKelradewnJ+m/e3p63lksFrenXUyzacb/EAG0qXw+P29qRuBvJWXTrmcv7tLuKeQLOWzm/wvD8GuSXpN2HTO02cxeVyqVfpp2Ic2EBgBAwy1evPjoTCbzDkmv1e7z/pvVRjMrRlH07UqlsjntYtJUKBT+zjl3Ydp1xOAk/Xe9Xn/XyMgI90mIBgBAisIwfKJ2NwFvk3RkyuXsy0ZJ3+zq6vrmJZdcsjXtYhqtUCg8xTm3Va3/3NjqnHtzpVJZmXYhaWv1bySANtDf39+dyWTOMbP3Szo+7Xr2IZJ0pZkVnXPf7qRXCsMw/LWkZ6ZdhyfFer3+5pGRkT+kXUhaaAAANI2FCxdmDznkkEFJb5V0Wtr1TMO4dt+W952xsbHh0dHR8bQLSlIYhp+V9Pa06/DoPjN7b6lUWpF2IWmgAQDQlAqFwsnOubdIerma6za6vdkmaaWk74+Nja1rx2agUCgMOOcqadeRgEq9Xn/jyMjIbWkX0kg0AACa2tKlSx8fRdF5zrl/knR02vVM0w5JP3LOFbPZbGnVqlV/SrsgHwqFwiHOuXsldaVdSwLul/SRnp6e/1ssFifTLqYRaAAAtISpg4UGJL3VzF6s1vn5NSnpqqm3Cb7f6gcOhWH4M0nPS7uOpJjZdVEU/WOlUrk67VqS1ir/AQHAQwqFQs459yY1/2uEe7LRzIpmdtHq1atb7XQ9FQqFIefcv6ZdR8IiSV9p91cGaQAAtKz+/v5Du7q6Xj61PNCXdj0z8DtJFUnFcrl8hVrgXoJCoXC6c+7ytOtokK3OufdWKpVvpl1IEmgAALS8qeWBl5rZP0gKJR2Qdk0zcIektc65tV1dXetWrlx5b9oF7cnUmxr3Sjo07VoaqDI5OfmWNWvW3JJ2IT7RAABoKwMDA4dlMpnBqSWCeWnXM0ORmV3rnFsXBMG6pzzlKT9ZsWLFrrSLelAYhiXtbrQ6yXZJHzryyCM/10zfizhoAAC0rYGBgQVBECyX9ApJh6RdTwzbJY2aWdk594NyuXxrmsUUCoW3Oef+I80a0mJmtcnJybcODw+vTbuWuGgAALS9wcHBWRMTE/koipa32BsEe/M7Seucc5Xt27f/sNFnDoRheKKk3zRyzCbU8ssCrf4fAQDsl6m77V8r6VWSnpx2PR48IOlyST+V9JOenp6rG3GdcRiGt0l6atLjNLkHzOxTu3bt+veRkZGJtIvZXzQAADrS8uXLu+68887QOfcaSYvUmhsH92SHpKuccz8JguCn3d3dVxWLxR2+BwnD8Jva3URh93XDby2VSj9Iu5D9QQMAoOMtXbr08fV6vWBmg5JeKimbdk0e1c3seufcOufcFdls9mc+TibM5/OvNrNv+CiwXZjZ951z70x7j8Z00QAAwMP09/cf1dXVdY5z7lxJ89OuJwF1Seudcz8NguCnQRBcMZOGoFAozHbOtfSphgnZIekCM/tYqVQaS7uYx0IDAAB7sXTp0mMmJyfPkfT3knJp15OgrZIuN7MrnHMbxsbG1k9nY2EYhhslzU2+vJZ0h5l9aP78+V8ZGhqK0i5mT2gAAGAawjA80cwGnXOvlnRs2vUkrC6pJmmDmV3unLtiwYIFNzz6QRaG4QWSzk+lwtax3szeXiqVrki7kEejAQCA/TA0NBRcc801Z0RR9AozWyrpSWnX1CB/kvRLSVeb2dXZbPaX9Xr9FOfc6rQLawFO0vcnJyff1UyvDdIAAMAMDQ4OZiYmJk6XtMQ5t0ztPzPwCM65281stniWTNf9zrmPz5o169NJvJmxv/imAYAnUwfk5LX7mNy/Fj9jsWe3m9mHu7u7v1osFifTKoL/cwJAAhYvXnx0Nptd5JwLtfucga60a0LT2SjpPeVyuZLG4DQAAJCw/v7+J3V1dYXOuaWSXiKpJ+2a0Dycc+uiKHrXmjVrrmvkuDQAANBAg4ODB4+Pjy+S1G9mi5xzR6VdE5pCJOniRm4UpAEAgBQNDAw8I5PJnOmcO1NSv6SD064JqXrAzD6za9euT42MjGxLciAaAABoEoODg7N27tx5ehRFZ5rZmc65+eLndKf6o6RP9vT0XJDUGwP8HwsAmtTDNhIukvRiSY9LuyY0lpndJukj27Zt+5/R0dG612yfYQCAZCxcuDB70EEHPTcIgkXOuRea2SnizYJOssk594FKpXKxdh8sFBsNAAC0oDAMD9Tuy4pOd86daWanS5qVcllI3i+dcx+pVCrluEE0AADQBhYuXNhz6KGHnirpjCiKXmBmz5V0UNp1ITGXSfpguVy+fKYBNAAA0IaWL1/eddddd50SRdELJL1A0vMkHZJyWfDvCkn/Ui6Xf7K/H6QBAIAOMHVvwbOnZgdOk3SqpKPTrgt+OOfWmdn7yuXyL6f7GRoAAOhQhULhKc65UySdamanTv3zE9KuCzPnnFsXBME/l0ql9fv6WhoAAMBD8vn88do9O3CKmZ0q6dnay9HFzjmZ8RhpQs7MVkn6SKlUunZvX8R3DgCwV8uXL++6/fbbT8pkMqc6506VdIqkPkmZlEvDNEwtDXygXC5f9ei/owEAAOyXhQsX9hx88MFvNbNPpF0Lpu0K59wnHv76IA0AAGC/hWF4paTT0q4D++2hRoAGAACwX/L5/EIzuyztOjBjt5rZh7JpVwEAaC1BELzXOS+n0aIx6pJ+IakcRdG64eHhayQ5ZgAAANNWKBROcs5dJ5aQm91Nkn5oZut27dq1dk9XCzMDAACYNufce8XDvxlFZnatpMrk5GR5eHh4w74+wDcRADAtYRgeK6kmfnlsFjsk/cjMytlstnzJJZds3Z8P800EAEzXP4nnRtruMLOSc640NjZ22ejo6PhMg5gBAADs07Jlyw6v1+u3iBsG03CLpNWSigsWLPj50NBQ5COUTg4AsE/1ev2t4uHfSL+TVJFULJfLV0hyklQulx/zQ/uDGQAAwGM666yzDuru7r5F0uFp19LOzOy6KIouzmQyl6xevXpj0uMxAwAAeEw9PT2vc87x8E/GTZIukvT1Uqm0qZEDMwMAANir5cuXd23dunWzpKPTrqWN3CpplXZP71+eVhHMAAAA9mrr1q0vFw//2MzsNufcJXrUmn6aaAAAAHtlZu/g2N8Z+7OkknOu2NPTs6ZYLE6mXdDD0QAAAPYon88vds49K+06Wsykc+4ySRfu3Lnz4ksvvfT+tAvaGxoAAMAemdl70q6hVZjZBkkXZjKZ765cufLutOuZDjYBAgD+wpIlS54TRdFVadfR5G6R9A0zu7BUKm1Ju5j9xQwAAOAvRFH03rRraFIT2r2uf+GsWbOabl1/fzADAAB4hEKhkHPObZQUpF1LE9ko6ZuSvloul+9JuxgfmAEAADxCFEXvNjMe/tJ9kopm9qVSqXRt2sX4xgwAAOAhhUJhtnPud5K6064lJc4596MgCFZ0d3evLhaLO9MuKCnMAAAAHu7t6syH/32SipIuqFQqv027mEZgBgAAIEnq7+8/NJvN3irpcWnX0ihTr++t6O7uvrBYLO5Iu55GYgYAACBJymazb1RnPPzvkfT1ycnJ/16zZk0t7WLSwgwAAED9/f3d2Wz2JklHpl1Lgq4xsy87575VLpcfSLuYtDEDAABQV1fXec65dnz475S0OgiCFatXr16XdjHNhBkAAOhwQ0NDwYYNGzZJOj7tWjy6U9I36vX650dGRm5Lu5hmxAwAAHS4DRs2LFP7PPwvd859fvbs2ZesWLFiV9rFNDMaAADA/0m7gJgiSWucc/9WqVSuTLuYVkEDAAAdrFAovNA5d1radczQNklfl/Tpcrl8a8q1tBwaAADobK145e9Nkr6cyWS+vGrVqj+lXUyrYhMgAHSoQqFwknPuOrXIs8DMNkRRdMH27du/Mzo6Wk+7nlbHDAAAdCjn3HvU/A9/55wrS/p4uVxmfd+jZv/GAwASsHTp0mMmJyc3q3l/EYwkrZH0r+Vy+Zq0i2lHzfqNBwAkqF6vv9PMmvEZMCHpIufcRyqVyua0i2lnzAAAQIdZtmzZ4fV6/RZJB6Vdy8OMSfqamX2iVCrdkXYxnaAZuz8AQIImJyfPV/M8/P8g6TP1ev2/RkZGtqVdTCdhBgAAOkgYhgdKukXSE1Mu5R4z+8KuXbs+w4M/HcwAAEAHMbPXO+fSfPjz4G8SzAAAQIdYvnx519atWzdLOjqF4XnwNxlmAACgQ2zduvXlavzD/w9m9l88+JsPDQAAdAgze4dzrlHDjUn6LzP7WKlUGmvUoJg+GgAA6AD5fH6xc+5ZDRjqAUlfqdfrHx0ZGflDA8bDDNEAAEAHMLOkL/3Zpd3v8X+I9/hbA5sAAaDN5fP5U83sFwnFO0nfd879Cyf3tRZmAACgzQVB8N6E1v5/4Jx7b6VSuT6JcCSLGQAAaGOFQiHnnNsoKfAYu0nSu8rlcsVjJhqMGQAAaGPOuXfJ38P/XjP7yLZt274wOjpa95SJlDADAABtavHixUdkMpmbJPXEjNop6Us9PT0fLBaLf/ZQGpoAMwAA0Kay2ew7nHNxHv5O0vclvadcLt/kqSw0CWYAAKANDQ4OPm58fPxWSYfOMOKXzrm3VCqVq33Whebhc1MIAKBJjI+Pv1Eze/jfZ2Zv7+npeS4P//bGDAAAtJn+/v7ubDZ7k6Qj9+NjTtK36vX6OznBrzOwBwAA2kxXV9d5zrn9efhf65x7c6VSuTKxotB0WAIAgDYyNDQUSHrnNL/8wen+U3j4dx5mAACgjVxzzTVLnXO90/jSCyW9o1Qq3ZN0TWhONAAA0EamDv55LHdIelO5XF7diHrQvFgCAIA2USgUXijptL38tZO0wsz6ePhDYgYAANrJ3q783eKce32lUhltZDFobrwGCABtoFAonOScu06P/Llel/Tper3+ryMjIxMplYYmxQwAALSHd+uRD/9fmdmrSqXSr9IqCM2NGQAAaHFLly49ZnJycrN2/1LnJP1nvV5/N7/147EwAwAALa5er7/TzLKSfm9m55VKpcvSrgnNjxkAAGhhy5YtO7xer98iac3OnTvfsHbt2j+mXRNaAzMAANDCdu3adZ6ZvbFcLl+Ydi1oLf8PwxSt3WpqenUAAAAASUVORK5CYII=;rotation=-140;flipV=1;" parent="JcYMje6Dr6iPlSgl3ygf-1" vertex="1">
          <mxGeometry x="640" y="580" width="90" height="90" as="geometry" />
        </mxCell>
        <mxCell id="5c8b0USUUTUK8Tl-P9VC-0" value="" style="endArrow=none;html=1;rounded=0;strokeColor=none;" edge="1" parent="JcYMje6Dr6iPlSgl3ygf-1">
          <mxGeometry width="50" height="50" relative="1" as="geometry">
            <mxPoint x="440" y="600" as="sourcePoint" />
            <mxPoint x="1040" y="600" as="targetPoint" />
          </mxGeometry>
        </mxCell>
      </root>
    </mxGraphModel>
  </diagram>
  <diagram name="al_medio_2" id="f2Dal4y4VUzBnVhn5-uC">
    <mxGraphModel dx="1370" dy="843" grid="1" gridSize="10" guides="1" tooltips="1" connect="1" arrows="1" fold="1" page="1" pageScale="1" pageWidth="850" pageHeight="1100" math="0" shadow="0">
      <root>
        <mxCell id="Wzahb84rhdzznRIE5RuG-0" />
        <mxCell id="Wzahb84rhdzznRIE5RuG-1" parent="Wzahb84rhdzznRIE5RuG-0" />
        <mxCell id="Wzahb84rhdzznRIE5RuG-2" value="" style="rounded=0;whiteSpace=wrap;html=1;strokeWidth=1;" parent="Wzahb84rhdzznRIE5RuG-1" vertex="1">
          <mxGeometry x="680" y="520" width="120" height="70" as="geometry" />
        </mxCell>
        <mxCell id="Wzahb84rhdzznRIE5RuG-3" value="&lt;span style=&quot;color: rgb(77, 77, 77); font-family: &amp;quot;Cascadia Code&amp;quot;;&quot;&gt;&lt;font style=&quot;font-size: 18px;&quot;&gt;&quot;pistachos&quot;&lt;/font&gt;&lt;/span&gt;" style="rounded=0;whiteSpace=wrap;html=1;strokeWidth=1;fillColor=#DFEAF2;" parent="Wzahb84rhdzznRIE5RuG-1" vertex="1">
          <mxGeometry x="560" y="520" width="120" height="70" as="geometry" />
        </mxCell>
        <mxCell id="Wzahb84rhdzznRIE5RuG-4" value="&lt;span style=&quot;color: rgb(77, 77, 77); font-family: &amp;quot;Cascadia Code&amp;quot;;&quot;&gt;&lt;font style=&quot;font-size: 18px;&quot;&gt;&quot;maníes&quot;&lt;/font&gt;&lt;/span&gt;" style="rounded=0;whiteSpace=wrap;html=1;strokeWidth=1;fillColor=#DFEAF2;" parent="Wzahb84rhdzznRIE5RuG-1" vertex="1">
          <mxGeometry x="800" y="520" width="120" height="70" as="geometry" />
        </mxCell>
        <mxCell id="Wzahb84rhdzznRIE5RuG-5" value="&lt;span style=&quot;color: rgb(77, 77, 77); font-family: &amp;quot;Cascadia Code&amp;quot;;&quot;&gt;&lt;font style=&quot;font-size: 18px;&quot;&gt;&quot;castañas&quot;&lt;/font&gt;&lt;/span&gt;" style="rounded=0;whiteSpace=wrap;html=1;strokeWidth=1;fillColor=#DFEAF2;" parent="Wzahb84rhdzznRIE5RuG-1" vertex="1">
          <mxGeometry x="920" y="520" width="120" height="70" as="geometry" />
        </mxCell>
        <mxCell id="Wzahb84rhdzznRIE5RuG-6" value="&lt;span style=&quot;color: rgb(77, 77, 77); font-family: &amp;quot;Cascadia Code&amp;quot;;&quot;&gt;&lt;font style=&quot;font-size: 18px;&quot;&gt;&quot;nueces&quot;&lt;/font&gt;&lt;/span&gt;" style="rounded=0;whiteSpace=wrap;html=1;strokeWidth=1;fillColor=#DFEAF2;" parent="Wzahb84rhdzznRIE5RuG-1" vertex="1">
          <mxGeometry x="440" y="520" width="120" height="70" as="geometry" />
        </mxCell>
        <mxCell id="Wzahb84rhdzznRIE5RuG-7" value="&lt;font style=&quot;color: rgb(77, 77, 77);&quot; face=&quot;Cascadia Code&quot;&gt;1010&lt;/font&gt;" style="rounded=0;whiteSpace=wrap;html=1;strokeWidth=1;fillColor=#DFEAF2;fontSize=22;" parent="Wzahb84rhdzznRIE5RuG-1" vertex="1">
          <mxGeometry x="440" y="480" width="120" height="40" as="geometry" />
        </mxCell>
        <mxCell id="Wzahb84rhdzznRIE5RuG-8" value="&lt;span style=&quot;color: rgb(77, 77, 77); font-family: &amp;quot;Cascadia Code&amp;quot;;&quot;&gt;1012&lt;/span&gt;" style="rounded=0;whiteSpace=wrap;html=1;strokeWidth=1;fontSize=22;" parent="Wzahb84rhdzznRIE5RuG-1" vertex="1">
          <mxGeometry x="680" y="480" width="120" height="40" as="geometry" />
        </mxCell>
        <mxCell id="Wzahb84rhdzznRIE5RuG-9" value="&lt;font style=&quot;color: rgb(77, 77, 77);&quot; face=&quot;Cascadia Code&quot;&gt;1011&lt;/font&gt;" style="rounded=0;whiteSpace=wrap;html=1;strokeWidth=1;fillColor=#DFEAF2;fontSize=22;" parent="Wzahb84rhdzznRIE5RuG-1" vertex="1">
          <mxGeometry x="560" y="480" width="120" height="40" as="geometry" />
        </mxCell>
        <mxCell id="Wzahb84rhdzznRIE5RuG-10" value="&lt;font style=&quot;color: rgb(77, 77, 77);&quot; face=&quot;Cascadia Code&quot;&gt;1013&lt;/font&gt;" style="rounded=0;whiteSpace=wrap;html=1;strokeWidth=1;fillColor=#DFEAF2;fontSize=22;" parent="Wzahb84rhdzznRIE5RuG-1" vertex="1">
          <mxGeometry x="800" y="480" width="120" height="40" as="geometry" />
        </mxCell>
        <mxCell id="Wzahb84rhdzznRIE5RuG-11" value="&lt;font style=&quot;color: rgb(77, 77, 77);&quot; face=&quot;Cascadia Code&quot;&gt;1014&lt;/font&gt;" style="rounded=0;whiteSpace=wrap;html=1;strokeWidth=1;fillColor=#DFEAF2;fontSize=22;" parent="Wzahb84rhdzznRIE5RuG-1" vertex="1">
          <mxGeometry x="920" y="480" width="120" height="40" as="geometry" />
        </mxCell>
        <mxCell id="Wzahb84rhdzznRIE5RuG-12" value="" style="shape=image;verticalLabelPosition=bottom;labelBackgroundColor=default;verticalAlign=top;aspect=fixed;imageAspect=0;image=data:image/png,iVBORw0KGgoAAAANSUhEUgAAAgAAAAIACAYAAAD0eNT6AAAACXBIWXMAAA7DAAAOwwHHb6hkAAAAGXRFWHRTb2Z0d2FyZQB3d3cuaW5rc2NhcGUub3Jnm+48GgAAIABJREFUeJzt3XmcXFWd9/Hv71Y13WFTxAUiChjo6oBDNAHEQSUqEjtdt5Lg9KA4ijNqxg119HEZR512m3F51JHRUTM6LrgNJSSpqk4bjNIqCGLC4hJSlSCLQABBNB1Id1J9z/NHGh7AhHT6nlu3ls/7H3klXd/ze9HS99fnnHuO6WGWL1/edccdd7zGzN4s6SRJ9rC/vt7Mvrxt27b/Hh0drQsAALSshx7wYRgeK+l/JZ2yj89cK2lpuVy+NcnCAABAckyS8vn8U83scknHTOtDZrdJek6pVLojwdoAAEBCAkkys//RNB/+kuScO8o5962kigIAAMkKwjA8S9JZM/jsC6c+CwAAWkwg6bwYn4/zWQAAkJJA0qkxPn+Gr0IAAEDjBJJmx/j8UxctWvQEX8UAAIDGCCRNxAno7u6e66kWAADQIIGZ3RInwDnX56sYAADQGIFz7oaYGcwAAADQYgIzi9sAnOilEgAA0DBBFEVxG4D5XioBAAAN42MG4MmFQiHOmwQAAKDBgp6enk2SHoiZ82wfxQAAgMYIisXipKTfxgmJoogGAACAFhJM/e81cULMjAYAAIAW8mADcG3MHBoAAABaSCBJzrm4DcAxHAkMAEDrCCRp1qxZv5ZUj5Fj3d3d8/yUBAAAkhZIUrFY3CGpGjOL8wAAAGgRwcP+OdZGQLEPAACAlvHwBiDWPgDnHA0AAAAt4qEGwMNGwFwYhgfGzAAAAA3wUAOQzWavk+RiZGWiKFoQvyQAAJC0hxqAVatW/UnSzXHCzOy0uAUBAIDkPXwPgMxsQ5wwM3tOvHIAAEAjPKIBcM79Imbec2N+HgAANMAjGoAoiuI2ALP7+/uPipkBAAAS9ogG4MADD1wvaVecwEwmwz4AAACa3CMagKkTAX8dJ5B9AAAANL9gD392VcxMZgAAAGhyf9EAeNgIuGBwcPCAmBkAACBBf9EARFEUdwZg1o4dOzgQCACAJvYXDcCaNWs2S7o3VmgQPD/O5wEAQLL2tAfASYq1DOCcowEAAKCJ7akBkJldHjP39KGhoT1mAwCA9O3xIT05ORm3ATjs2muvPTFmBgAASMgeG4Aoiq6WNB4nOIoilgEAAGhSe2wARkZGJiStjxPMPgAAAJrXXtfpnXM/ixNsZjQAAAA0qb02AGYWqwGQ9NQwDI+NmQEAABKw1wagp6fn55Im44Sb2QvifB4AACRjrw1AsVj8s6TfxAl3zr0wzucBAEAyHvNd/bj7ACSdGfPzAAAgAY/ZAPjYB7B48eLemBkAAMCzx2wAstnsqHYfDTzzAYLgRXE+DwAA/HvMBmDlypV3S/ptnAHMjH0AAAA0mX2e1++c+1HMMV7MvQAAADSXfT6YzeyymGMcvn79+r+KmQEAADzaZwPQ09MzqvjnAbAPAACAJrLPBmDqPIBrYo5DAwAAQBOZ7tp83H0AZyxfvrwrZgYAAPBkug1A3H0Ah2zdunVBzAwAAODJdBuAyyVNxBnIzF4S5/MAAMCfaTUA5XL5AUlXxRnIObcozucBAIA/034/3zkXdxngtEWLFj0hZgYAAPBg2g2AmcXdCJg54IADuBwIAIAmMO0GYGxs7CpJf44zGMsAAAA0h2k3AKOjo3XFfB3QzPolWZwMAAAQ336d0e+c+0HM8Y4sFAocCwwAQMr2qwGYnJwc8TDmSz1kAACAGParARgZGblNMa8Hds7RAAAAkLKZXNMbdxngef39/YfGzAAAADHsdwNgZmtjjtmVzWZfGDMDAADEsN8NwK5du34qaXvMcXkdEACAFO13AzAyMjIh6Scxx+2P+XkAABDDTPYASFLcZYBjBgYGnhkzAwAAzNCMGgAP5wEoCIJC3AwAADAzM2oAKpXKZkk3xhybBgAAgJTMdAlAzrm4hwKdcvbZZx8ZMwMAAMzAjBuAIAiG445dr9fDmBkAAGAGZtwA7Nq16zJJY3EGd87RAAAAkIIZNwAjIyMTHg4FekmhUDgkZgYAANhPM24AJMk5V4o5fncURWfGzAAAAPspVgOwc+fOYUn1OBlmxtsAAAA0WKwGYO3atX+UdEXMGsLBwcFMzAwAALAfYjUAkpdlgMPHx8efG7cOAAAwfbEbgGw2uzpuBssAAAA0VuwGYNWqVTdK2hgnwzm3LG4dAABg+mI3AFPiLgMcVygUcl4qAQAA++SlAfCwD0DOuZf5qAUAAOyblwbg5JNP/oWkO+NkmNmgj1oAAMC+ma+gMAy/Ium1cTLMrK9UKlU9lQQAAPbC1x4AmRnLAAAAtAhvDYBzbp2k+2PG/I2PWgAAwGPz1gCUy+UHJMW9IvjZ+Xz+eB/1AACAvfPWAEiSc64YNyMIAmYBAABImNcGwMzWKOYygHOOtwEAAEiY1wZgahlgTcwYlgEAAEiY1wZAksyMZQAAAJqc9wbAOTcslgEAAGhq3hsAX8sAhULhOB/1AACAv+S9AZD8LANIYhYAAICEJNIAsAwAAEBzS6QBKJfLD5jZSMwYlgEAAEhIIg2A5OdQIEmv8JABAAAeJbEGQFJF8ZcBXiWPNxYCAIDdEmsAPC0DHJ/P50/xUhAAAHhIkjMAXpYBzOzvfNQCAAD+v0QbgImJiWFJD8SMefny5cu7fNQDAAB2S7QBuPTSS+93zpVixjzpzjvvPMtLQQAAQFLCDYAkBUHwrbgZURSxDAAAgEeJNwDbtm1bK+muOBlmtnRwcPBxnkoCAKDjJd4AjI6O1iX9b8yYnh07dpztox4AANCABmBK7GUA3gYAAMCfhh2yE4bhDZL6YkREQRAcs3r16t/7qgkAgE7VqBkAOee+HTMicM5xNDAAAB40rAGIouhCSS5OhnPuPE/lAADQ0RrWAKxZs+YWSVfEjDkhn8/P81EPAACdrGENwBQ2AwIA0AQa2gBEUXSRpImYMecODg5mfNQDAECnamgDMDw8fJ+k4ZgxsycmJl7qox4AADpVo5cA5JyLvQzgnHudj1oAAOhUDW8AZs2aNSzp3pgx+UKhMNtHPQAAdKKGNwDFYnGnpO/HjMlK4pVAAABmqOENwBQvywBDQ0Np1Q8AQEtL5QFaLpevkLQ5ZswzNmzYsNBDOQAAdJy0foN2kv7HQw6bAQEAmIHUptDN7GuSdsWMeVkYhk/0UQ8AAJ0ktQagVCrdZWaVmDEHmNkrvRQEAEAHSXsT3VfjBjjn/tFHIQAAdJJUG4D58+ePSLo1ZszcMAxP81EPAACdItUGYGhoKJL09bg5zrnXx68GAIDOkfYSgIIg+IqkyTgZZnZOf3//oZ5KAgCg7aXeAKxevfr3ZrYuZsxBXV1dL/dSEAAAHSD1BkCSoij6StwMLggCAGD6mqIBmDVrVknS3TFjTikUCs/2UQ8AAO2uKRqAqQuCvhk3h82AAABMT1M0AJJkZl/R7iOC4zhvYGDgMB/1AADQzpqmASiVSlUzuzxmzIFBEHBNMAAA+9A0DYDkZzOgpLdwTTAAAI+tqR6Us2bNKkq6L2bMnPXr17/URz0AALSrpmoAisXiDknfjZtjZud7KAcAgLbVVA2AJDnnVniIWbR48eJeDzkAALSlpmsAKpXK9ZJ+GjPGMpnMm33UAwBAO2q6BkCSnHP/6SHm77kfAACAPWvKBmD79u2rJP0+ZswhXV1dr/ZRDwAA7aYpG4DR0dG6pC/FzXHOvZVXAgEA+EvN/HBcIWk8ZsbxGzZsONNHMQAAtJOmbQDK5fI9kv7XQxSvBAIA8ChN2wBIkpl9zkPMAK8EAgDwSE3dAJRKpWudcz+PGWPZbPYfvRQEAECbaOoGQJKCIIj9SqBz7h8GBwcP9lEPAADtoOkbgCOOOOJiSbfHjHn8jh07/s5HPQAAtIOmbwBWrFixS7vfCIjFzN4iyeJXBABA62v6BkCSstnslyRNxIw5MQxDbgkEAEAt0gCsXLnybjP7voeod3rIAACg5bVEAyBJk5OTn/UQ8+IwDOd7yAEAoKW1TAMwPDy8QdLVcXPM7B0eygEAoKW1TAMgSWbm45XAc8IwfLqPegAAaFUt1QB0d3dfJOnOmDFZSW/1UA4AAC2rpRqAYrG40zkX+5ZASa8fHBx8nIccAABaUks1AJLU1dX1eUn3x4w5dGJiguOBAQAdq+UagJUrV95rZhfGzXHOvXVwcPAAHzUBANBqWq4BkKQoij4jKYoZ89SJiQmOBwYAdKSWbAAqlcpmSaW4Oc659w0ODmY8lAQAQEtpyQZgyqc9ZMzZsWPHMg85AAC0lJZtAMrl8uWSroybEwTBv4hLggAAHaZlG4ApsWcBnHPPGhgYOMtHMQAAtIqWbgAWLFiwUtKWuDlBEPyzh3IAAGgZLb0BbnR01OVyuUlJAzGjjunt7b20Vqvd5qMuAACaXUvPAEjS2NjY/0jaGjfHzJgFAAB0jJZvAEZHR8clfc5DVL5QKJzkIQcAgKbX8g2AJNXr9S9K+lPMGHPO/YuPegAAaHYtvQfgQVu2bJno7e19nJk9P2bU3OOPP/6SzZs33+2lMAAAmlRbzABIUldX139IeiBmTBAEwft81AMAQDNrixkASdq0adP9vb29R5rZqTGjTsjlchfVarV7vBQGAEATapsZAEnKZDKflLQzbowkZgEAAG2tbWYAJKlarW7r6+s7XtK8mFHPPO644763efPme33UBQBAs2mrGQBJmpyc/LjiXxWcyWQynAsAAGhbbdcADA8P3yDp+x6iXpXP54/3kAMAQNNpuwZAkoIg+Kg8zAJIeq+HcgAAaDptew1uGIYXSzo7ZsykmZ1YKpWqPmoCAKBZtOUMgCQ55z4sycWMyTjn3u+jHgAAmknbNgCVSuV6SSUPUedyRwAAoN20bQMgSWb2IcWfBQgkfcBDOQAANI223QPwoDAMy5LyMWOcmS0olUrX+qgJAIC0tfUMgCRFUTSk+LMA5pz7kIdyAABoCm3fAAwPD2+Q9AMPUWEYhqd5yAEAIHVt3wBIUhRFH1D8WQBJ+rCHDAAAUtdWdwHszebNm7f29vbON7NczKg5uVxutFar3eKlMAAAUtIRMwCSlMlk3q/4pwNK0ifVAZsnAQDtrSNmACSpWq3encvlTpR0Ysyop/b29l5fq9U2+agLAIA0dMwMgCRNTk5+QFI9bo6Z/fvChQuzHkoCACAVHdUArFmzpibpux6icocccshrPOQAAJCKjmoAJCmTyXxQ0k4PUR8Kw/BADzkAADRcxzUAq1atutk59w0PUbMlne8hBwCAhuu4BkCSzOyjkiY8RL132bJlh3vIAQCgoTqyASiXy7dK+rKHqMdPTk6+x0MOAAAN1ZENgCRls9mPSRqLm+OcO3/JkiVP81ASAAAN07ENwMqVK+92zn3aQ1SPc+6jHnIAAGiYjm0AJGnWrFmflnRn3Bzn3KsKhcLJHkoCAKAhOroBKBaL283sYx6izDn3fz3kAADQEB3dAEjSEUcc8WVJWzxEnZHP55d5yAEAIHFcaiMpDMNXSPqOh6jf1ev1E0ZGRny8YggAQGI6fgZAksrl8vfMbIOHqGdks9k3esgBACBRNAC7Oefc+zxlfZDDgQAAzY4GYEq5XL5U0o88RB1Wr9ff7yEHAIDE0AA8jHPunZIiD1FvXrx4ca+HHAAAEkED8DCVSuV6ST4uCurKZDKf9JADAEAiaAAexczeL+l+D1FLwjDs95ADAIB3mbQLaDbVanWst7e3y8wWeog7dc6cOSu2bNky6SELAABvmAHYg1mzZn1S0u89RB3f1dX1Fg85AAB4xUFAexGG4Wskfc1D1FhXV1fukksu2eohCwAAL5gB2IsFCxZ8U9J6D1GH7Nq1y8d9AwAAeMMMwGMIw/AMSaMeolwQBM9dvXr1LzxkAQAQGzMAj6FcLv9E0moPUeac+8LQ0BD/vgEATYEH0j5MTk6+W9LOuDnOuQXr168/z0NJAADExmuA+7B58+Z7e3t7DzGz0+NmmdlpJ5xwwlc2bdo07qM2AABmihmAaQiC4KOS7vAQ9ZR6vf4RDzkAAMTCDMA0VKvVnb29vfeY2bK4WWZ28ty5c9dWq9XbfdQGAMBM8BbA9FmhUPiJc+75sYPMNnR3dz+nWCxyQiAAIBUsAUyfc869XR5uC3TOLZiYmFjuoSYAAGaEJYD9UKvVtuZyuadJmu8h7vnPfOYzv3HDDTds95AFAMB+YQZgP2Wz2X+R9CcPUYfu2rXrEx5yAADYb8wA7KdNmzbdn8vlJiS91EPcvFwu97NarXaThywAAKaNGYAZGBsb+7ykX/vIMrMv9vf3d/vIAgBgumgAZmB0dLRuZm+T5OJmOed6u7q63uGhLAAApo3XAGMoFArfcs690kPUDjM7qVQqbfGQBQDAPjEDEM87Jd3nIWeWc+6/RUMGAGgQNgHGUK1W78/lcmOSBjzEHdPX13drtVq91kMWAACPiRmAmBYsWPAlSb/wkeWc+0yhUJjtIwsAgMdCAxDT0NBQFEXRmyX5ONb3cc65z3rIAQDgMbEE4MHmzZu39vX1PVnSqR7iTszlctfVarWqhywAAPaIGQBPdu3a9T75uTJYkv5r6dKlj/eUBQDAX6AB8GRkZGSbpHd5ipsdRdFHPWUBAPAXeO3MszAM10l6sYeoyMxeUCqVrvCQBQDAIzAD4JmZvUHSDg9RgXPuK4ODg7M8ZAEA8AhsAvSsWq3+MZfL1SWd6SHuifV6vbtWq/3QQxYAAA9hBiABY2NjnzazDZ7i3jEwMPB8T1kAAEiiAUjE6OhoPYqi10ra5SEuyGQyLAUAALxiCSAhtVrtrr6+vkMkne4h7vB6vX5grVZb6yELAABmAJLU3d39r5J83fD3tkKh8AJPWQCADsdrgAnL5/MLzezH8vPv+qaenp6TisXidg9ZAIAOxgxAwiqVyqikr3uKO3bHjh0cEAQAiI0GoAF27tz5fyTd5SPLzM4Pw/AMH1kAgM5FA9AAa9eu/aOZne8pLpD01cHBwYM95QEAOhANQIOUSqWipIs8xc0ZHx/n2mAAwIzRADTWm+VpKUDS6/L5/N94ygIAdBgagAYql8v3mNlyX3lm9sXFixcf4SsPANA5aAAarFQqlSR911PcE7PZ7NfF65wAgP1EA5CCbDZ7vqQ7fWQ55xYVCoU3+MgCAHQOfnNMST6fD82s5CnuATObXyqVqp7yAABtjhmAlFQqlbKkb3mKO9A5953BwcEDPOUBANocDUCKMpnM+WZ2m6e4+RMTEx/wlAUAaHMsAaTM81LAZBAEL1i9evXPPeUBANoU1wGnrFar1XK53FGS5nuIC5xzZx177LHfuPHGG3d4yAMAtCmWAJrAxMTE282s5inuaQcccMAKT1kAgDbFDEATuPHGG3flcrmrJP29/HxPTujt7b2rVqut95AFAGhDNABNolqt3pHL5bKSvNz0Z2ZnHnfcccObN2/2ct4AAKC9sATQRMbGxj4i6Ree4noymcxFhULhEE95AIA2QgPQREZHR+uZTOaVksY8RR7vnOPWQADAX2AJoMls2rTpvlwu90dJeU+R83t7e7fUarVfe8oDALQBzgFoUmEYliSFnuK2T05OLlizZo2vNw0AAC2OJYAmVa/XXytPFwZJOjibzXJUMADgITQATWpkZOQPkl4vyfnIc84tGB8f/5SPLABA62MPQBOr1Wq13t7ew8zsNE+Rz+nr67uxWq3+ylMeAKBFMQPQ5CYnJ98j6Rpfec65Ly5ZsuQEX3kAgNZEA9DkRkZGJszsHEnbPEUeHEXRJZwPAACdjQagBZRKpS3OueUeI3NRFHFfAAB0MPYAtIharfbbXC53rKRn+cgzs2fmcrk/1Gq1X/rIAwC0FmYAWsjExMSbJd3gMfI/lixZ8tce8wAALYKDgFrMwMDAM4MguFrSLE+Rv5c0v1wu3+MpDwDQApgBaDHDw8O/MbN3e4x8mqTvDQ4OshwEAB2EH/otqFqtXt3X1zdP0lxPkc+o1+uq1WqjnvIAAE2OGYAWNTk5+VpJv/MY+YF8Pr/MYx4AoImxB6CF5fP5eWZ2pfztB9geRdFzh4eHf+MpDwDQpJgBaGGVSuV659zbPEYeHARBOQzDJ3rMBAA0IfYAtLharXZNLpc7WtKzPUU+3jk3f/bs2d+9+eabI0+ZAIAmwwxAGxgbG3uTPN4XYGZnHnroof/mKw8A0HxoANrA6Ojo+NR9AX/2lemce1cYhq/xlQcAaC5sAmwj+Xw+NLPV8vd9HZf0gnK5zHHBANBm2APQRmq1Wi2Xyx0sydfxvllJi0488cTvbNq06X5PmQCAJsASQJsZGxv7Z0k/9Rj59Hq9XhwcHDzAYyYAIGU0AG1mdHS03tXV9XJJWz3GvmB8fPzLHvMAACljCaAN3XDDDdtzudwVkl6l3dP4Pjwrl8tN1Gq1yz3lAQBSRAPQpmq12m29vb23mpnP431f3NfXV61Wq5wUCAAtjgagjdVqtev7+vqeJOlUT5EmaWDu3LnrqtXq7Z4yAQApYA9Am9u2bdvbJV3mMXJWFEWrwjB8usdMAECD0QC0udHR0Xo2mx2U35sDj5C0ZnBw8HEeMwEADUQD0AFWrlx5r3PubEk+3+U/cXx8/LuDg4MsIwFAC6IB6BCVSuV6SedJch5j+8fHxz/lMQ8A0CD89tZBarXaDb29vQea2ekeY5/b19d3d7VaXe8xEwCQMGYAOszJJ5/8z5LW+Mx0zn2+UCic7TMTAJAsLgPqQP39/Ydms9krJD3TY+wOSWeVy2UOCgKAFkAD0KHCMDxW0lWSnuwx9l5JzyuXy5s8ZgIAEsASQIcql8s3mdnZkiY8xh5uZj9csmTJ0zxmAgASQAPQwUql0hWSXi2PbwY4546KomjN0qVLH+8rEwDgH28BdLharfbbXC6XkXSGx9gnO+dOmzNnzve2bNky6TEXAOAJDQBUq9VG+/r6jpN0ksfYY8zsuHPPPXfl6Oioz7MHAAAesAQASXLbtm17naQrfYaa2cvXr1//7z4zAQB+MAMASdLNN99cP/HEE8tRFA1K8rZ+b2an53K5P9dqtat8ZQIA4uM1QDzCwMDA3CAIfi6PTYB2bzJcXi6Xv+IxEwAQA0sAeITh4eEbJJ0jaZfHWJP0pTAMX+YxEwAQA0sA+Au1Wu3GXC53o6Sz5W+WKJC0NJfLbajVals8ZQIAZogGAHtUq9V+3dfXt1PSiz3GZiQtO/7443+2efPmWz3mAgD2Ew0A9qparV6ey+WeIOk5HmO7zOzsXC53aa1W2+oxFwCwH9gDgMe0YMGCf5J0sefYx0n6wcDAwFzPuQCAaeItAOzTwoULew499NBLnXPP95lrZrcFQfD8VatW3ewzFwCwb8wAYJ9GR0fHu7u7Q0m/8pnrnDtqcnLyh4sXLz7CZy4AYN+YAcC0hWH4dEk/l/RUz9G/kvTicrl8j+dcAMBeMAOAaSuXy7dGUfRSSfd5jj5J0rply5Yd7jkXALAXNADYL8PDw78xs5dJmvAcPa9er186MDBwmOdcAMAe0ABgv5VKpcvM7G8l1T1Hzw+C4EeLFi16gudcAMCjsAcAM1YoFP7OOfcN+W8kr4mi6Mzh4WHfSw0AgCkcBIQZq1arv8rlcvdIGvAcfaSZnTFnzpzili1bfC81AABEA4CYarXaL3O5XF3SizxHHxUEwcK+vr6LqtXqTs/ZANDxaAAQW61W+1lvb++BZna65+inOefO6OvrK9IEAIBfNADwolar/SiXyx0paYHPXDN7mqS/PuaYY4o33nijzyuKAaCj8RYAfHELFix4o6TvJpB9Rnd39w/6+/sPTSAbADoSbwHAq+XLl3dt3br1Ekl539lmtiGTySxauXLlvb6zAaDT0ADAu8HBwVnj4+NrJC30nW1m1+3ateuskZGRP/jOBoBOQgOARIRheKCkYSXQBEja5Jw7s1Kp3J5ANgB0BBoAJOass846qLu7e1jSGQnE3xxF0YuHh4d/l0A2ALQ9GgAkaqoJWCPpBQnE3zo1E7A5gWwAaGu8BYBEXXrppffX6/VQ0i8SiH+6mf1syZIlf5VANgC0NRoAJG5kZGRbT0/PIklXJxD/lCiKfpLP509NIBsA2hZLAGiYgYGBwzKZzA+dc14PC5pyn3NuoFKpXJlANgC0HWYA0DDDw8P3BUFwpqT1CcQfZmbrCoWC74uJAKAt0QCgoVatWvWnTCbzEjPbkED8gc651WEYvi6BbABoK9wFgIbbtGnTeG9v7yWSXirpKZ7jA0lhb2/vA7Va7eeeswGgbbAHAKkZGBg4LAiCEUnPSWiICxYsWPBPQ0NDUUL5ANCyaACQqsHBwYPHx8dLkl6YRL6ZffuII474+xUrVnCTIAA8DA0AUjd1bPAqSS9JIt85ty4IgrNLpdJYEvkA0IpoANAU+vv7u7PZ7PckLU1oiF/W6/UBLhECgN14CwBNYWRkZKKnp+ccSRcnNMQp2Wz2J2EYPj2hfABoKTQAaBrFYnHnVBPw9YSGmCvpqkKhcHJC+QDQMlgCQDOyfD5/gZm9JaH8+yW9slwur04oHwCaHucAoCnVarUf5HK5QyU9N4H4AySd09fXZ9VqdTSBfABoejQAaFq1Wm1tLpc7QNLzE4g3SQt7e3ufOG/evEs3btzoEhgDAJoWDQCaWq1W+3FfX9+92n1qoPclKzM7tV6vnzZnzpzSli1bJnznA0CzYg8AWkKhUDjbOfdtST0JDfFrSflyuXxrQvkA0FRoANAywjB8kaSVkg5NaIitURSFw8PDSVxUBABNhdcA0TLK5fKPzezFku5OaIgjgyD4SaFQKCSUDwBNgz0AaCnVavWO4447rhQEQV7SYQkMcYCkv+3r67u/Wq1emUA+ADQFlgDQkhYvXnxENpsdcc49K6kxnHPfM7PXlsvlB5IaAwDSwhIAWtKaNWvu7O7ufr6kHyY1hpm93MyuWLx48dFJjQEAaWEGAC1t6hKhCyUNJjjMPc65wUqlMprgGADQUOyID1MSAAAcBElEQVQBQEvbsmXL5Lx58y6ZnJw8XNKpCQ1zoJmd29vbe1etVrsmoTEAoKGYAUDbKBQKy51zX5CUTXCYFT09PecXi8WdCY4BAImjAUBbKRQKL3XO/a+SOytAkq4ws5eVSqW7EhwDABJFA4C2UygUTnLOVSQ9LakxzOw259zZ5XL5l0mNAQBJ4i0AtJ1SqfSrIAhOl3R9UmM4546SNJrP51+d1BgAkCRmANC2BgcHDx4fH/+OpDDhoS6U9AbOCwDQSngLAG1r48aNO+fNm3dRvV4/TNJzEhxqnpkN5HK5H1Wr1T8mOA4AeMMMADpCoVB4m3Pu00q26R2T9LpyuXxRgmMAgBc0AOgYhUKhMHWl8MEJDuMk/ceRRx75nhUrVuxKcBwAiIUGAB1lyZIlfxVF0SpJz0h4qF9mMpm/XbVq1c0JjwMAM0IDgI6zaNGiJxxwwAHfk/SShIe6x8xeVSqVfpDwOACw39gEiI5z44037pg3b9536vV6t6TnJTjUgZJemcvlZs2bN++yjRs3ugTHAoD9wgwAOloYhq+Q9BXtflgn6UpJryyXyzclPA4ATAsNADpeoVB4tnNupaSkr/39s6Q3lsvl7yY8DgDsEw0AIKm/v/9J2Wz2IkkLGzDchT09PW8qFovbGzAWAOwRewAASVu2bHlg9uzZ3+7u7k760CBJmlev11/R29t7da1Wuy3hsQBgj5gBAB5l6lrh/5R0QMJD1c3sY/Pnz//w0NBQlPBYAPAINADAHhQKhdOnrhV+atJjOefWBUFwXqlUuiPpsQDgQdwGCOxBqVS6QtKzJCX+Dr+Znemc+20+nz8n6bEA4EHsAQD2olarPXDuued+94477nBm9gIlO2PWY2Z/09fXd8TRRx89euONN3KMMIBEsQQATEOhUHihc+47ko5owHA3mdlrS6XSZQ0YC0CHYgkAmIZSqXSZc+5kSZc3YLhjnXM/CsPwy2edddZBDRgPHaa/v7877RqQPpYAgGmq1Wpjs2fPvrCnp8dJSnpJwCQtyGazL8/lctfXarVbEhwLHWbu3Lnn9Pb2Hl6r1W5OuxakhyUAYAby+XxoZt+QdFgDhou0+7jifyqXyw80YDy0ucWLFx+dyWR+65zLVyqV0bTrQTpoAIAZCsPw6ZIuUvIHBz3oxiiK/n54ePhnDRoPbSwMwy2SjqAJ6FwsAQAzVKvV/jxnzpwLzewQM3uOkm+on2Bmr8rlcgfOmTPn8i1btkwmPB7aWC6XO0HSc81ssLe39+csB3QeNgECMYyMjExUKpW3B0FwlqRGHOSTlfTebDa7IQzDUxowHtqUmf1o6h8PMrNKoVB4YaoFoeFoAAAPVq9eva5erz9LUrlBQ54o6edhGH5ucHDw4AaNiTaSyWR+rN37SyTpIOccTUCHYQ8A4JcVCoXXO+c+K+nABo15u3Pu/EqlsrJB46FNFAqF9c65BQ/7owfM7GWlUinxEzCRPmYAAL9cqVRaEQTBKZKub9CYTzWzS8IwLPf39x/VoDHRBpxz6x71Rwc651aHYfi3qRSEhmITIJCAarX6h9mzZ3+9u7u7S9JfqzGzbb1BELy2r69vxyte8Ypfjo6OugaMiRY2d+5cOede/ag/zkg6u6+v785qtbohjbrQGCwBAAkrFAovcc59Q9KRjRrTOfdz59w/Dg8P/6ZRY6L1LFy4sOeQQw75o6RZe/hrZ2YfLpVKQw0uCw3CDACQsGq1+rsTTzzxwiiKTpDU24gxzexpZvb6XC73xGOOOeZnXC6EPbn55pvrvb29C83sGXv4a5O0MJfLPaFWq61tdG1IHg0A0ACbNm26v1arfbevr+8OSQslNeIs9oyk50wdJ7ypVqvd2IAx0WJyudxTJZ35GF/ynL6+vmOPPPLIys033xw9xtehxbAEADRYGIbHSvof7W4EGsVJ+l69Xn/3yMjIbQ0cF01uYGBgQRAE66fxpaskvZLjqNsHDQCQjgdfF/y0pEa+x/+AmX1q27ZtHx8dHR1v4LhoUkNDQ8GGDRvukvTEaXz51WZWKJVKdyVdF5JHAwCkaGo24KuSGn0Ay++dc++vVCrfbPC4aEKFQqHonPubaX75TZIWl8vlTUnWhOTRAADpS2s2QJJ+HEXR23hboLPl8/k3mNkX9+Mj90laVi6Xf5JUTUgeBwEB6XOlUmlFFEXzJDX6B+qLgiC4ZupI4cc1eGw0iSAIHn0g0L4cJunSfD7/yiTqQWMwAwA0lwdnAz4j6aAGj32vmX2ku7v788VikZsGO0wYhr+TdOx+foyzAloYrwECTaZarW7I5XKXOOfmm9nTGjj0gZJeWq/XXzp37txfV6vV2xs4NlLW29t7opkt2PdXPsKDZwUcNW/evLUbN26kcWwhzAAAzcvy+fyrzOwzkg5v8NhO0vfN7H2lUmlLg8dGCvL5/Dlm9r0YEVdMXSTEGwItggYAaHKLFy8+IpPJfFLSq1IYfpekr5nZB/nB3t6WLVt2eL1ev1sx9oaZ2W2Tk5NLh4eHuUOgBdAAAC0in88vNrMvSDomheG3S/qCmX2sVCqNpTA+GiAMw2skPTtmzP2SziuXyxd7KAkJYg8A0CJqtdrmefPmrZicnKxr9w2Djfzv9wBJz5N0Xl9f3/Yjjzzyeo6FbT99fX1zJJ0eM+YASYO5XG7Wueee+2NupWxezAAALahQKJzknPuypNNSKmHT1LJAMaXxkYCBgYFFQRD8wGNkpV6vv3JkZGSbx0x4wjkAQAsqlUq/WrBgwelm9o+S0vjh2uecuygMwysHBgaen8L4SEAQBD+TNOExMp/NZn+6dOnSYzxmwhNmAIAW19/ff1RXV9cFzrllKZXgzOziycnJDw4PD9+QUg3wJAzDH8v/0dR/lvSacrm8ynMuYmAPANDitmzZsq1arf5vb2/v5VPvcT+5wSWYpBPM7I25XO6ZuVzu17Va7Z4G1wBPcrncUZJe5Dm2R9I57AtoLswAAG1k+fLlXXfeeeebnHMfkpTW0b6RpIvN7AOlUqmaUg2YoXw+f6qZ/SLBIS7LZrMvX7ly5d0JjoFpoAEA2tDUO90flPQWpbfXh0agBQ0ODmbGx8fvlvSEBIf5fRAEg6tXr06y0cA+0AAAbWxgYGCBmV1gZn+dYhmRpIsnJyffv2bNmlqKdWCawjC8WNLZCQ8zYWbvKZVKn0t4HOwFDQDQ/h48UvgTko5IsY5I0sXOuX+pVCqbU6wD+1AoFN7onPuvBg331Z6envOLxeKOBo2HKTQAQIfo7+8/NJvNflDSWyV1pVjKLknfjKLo34aHh3+XYh3Yi8WLF/dmMplGLtvcEATBOatXr/51A8fseDQAQIfJ5/PHm9lnJQ2kXEokaY1z7iOVSuXqlGvBo4RheJMae+z0DjP7Z5YEGocGAOhQS5YsOTOKok8q/tnvPlzhnPtEpVIpp10Idsvn8181s39o9Lhm9v3u7u7XFYvFPzd67E5DAwB0NisUCn/jnPu4pGekXozZdVEUfXb79u3fGR0draddTycLw/BcSd9OY2wzq9Xr9XPWrFlzXRrjdwoaAAAaHBw8YGJi4jXOuY9KelLa9Ui6ycw+193dvYLNYelYtmzZk+v1+p1K7znx4FsCF0ji4KAE0AAAeMjAwMBhQRC8R7s3Cs5Kux5Jd5vZFycmJi5Yu3btH9MuptOEYXidpHkpl3FxFEWvHx4evi/lOtoORwEDeMjmzZvHa7Xaulwud6F2HwRzktL9ReEgSQszmcybcrnc4XPnzr2hWq1ys1yD9PX1HS/puSmXcYKZndfX1/fbarW6JeVa2gozAAD2asmSJSdEUTQkaTDtWqZEktYEQfC51atX/0hMDScqDMN+SWvSrmOKk/Sf9Xr93SMjIz5vLOxYNAAA9ikMwxdJ+rikU9Ku5WF+bWafd859q1wuP5B2Me0oDMMDJf1RUnfatTzMb8zslaVS6VdpF9LqaAAATNvUq4P/puZqBLZJ+p6kz5bL5U1pF9NuwjAclXRG2nU8yrikoQULFnxqaGgoSruYVkUDAGC/TTUC/y7p5LRreZjIOfdjSRdUKpWKWB7wolAofMA59+G069iLH5rZa0ql0h1pF9KKaAAAzNiSJUvOdM593Dm3IO1aHmWzpK9GUbSC3ePxhGF4mqQr067jMdxtZq8vlUqltAtpNTQAAOKyfD6/1MyGtPutgWayzcwulPTVUql0bdrFtKKp64HvkfT4tGvZh+LOnTvfwOui00cDAMAXy+fz+alGYH7axezBRknflPTVcrl8T9rFtJIwDFdJWpJ2HdNwp3NuOUdKTw8NAADfHmwEPqTmuGfg0SYklYIgWMGrhNMThuH5ki5Iu479cKGZvblUKo2lXUgzowEAkIihoaFg/fr1Z5vZu9Vcbw083I2Svuac+3qlUrk97WKa1cDAwNwgCDamXcd+ukXSP5TL5R+nXUizogEAkLgwDJ8n6T3afQVxM/7ciZxzPw6CYEV3d/fqYrG4M+2Cmk0YhrdKelradewnJ+m/e3p63lksFrenXUyzacb/EAG0qXw+P29qRuBvJWXTrmcv7tLuKeQLOWzm/wvD8GuSXpN2HTO02cxeVyqVfpp2Ic2EBgBAwy1evPjoTCbzDkmv1e7z/pvVRjMrRlH07UqlsjntYtJUKBT+zjl3Ydp1xOAk/Xe9Xn/XyMgI90mIBgBAisIwfKJ2NwFvk3RkyuXsy0ZJ3+zq6vrmJZdcsjXtYhqtUCg8xTm3Va3/3NjqnHtzpVJZmXYhaWv1bySANtDf39+dyWTOMbP3Szo+7Xr2IZJ0pZkVnXPf7qRXCsMw/LWkZ6ZdhyfFer3+5pGRkT+kXUhaaAAANI2FCxdmDznkkEFJb5V0Wtr1TMO4dt+W952xsbHh0dHR8bQLSlIYhp+V9Pa06/DoPjN7b6lUWpF2IWmgAQDQlAqFwsnOubdIerma6za6vdkmaaWk74+Nja1rx2agUCgMOOcqadeRgEq9Xn/jyMjIbWkX0kg0AACa2tKlSx8fRdF5zrl/knR02vVM0w5JP3LOFbPZbGnVqlV/SrsgHwqFwiHOuXsldaVdSwLul/SRnp6e/1ssFifTLqYRaAAAtISpg4UGJL3VzF6s1vn5NSnpqqm3Cb7f6gcOhWH4M0nPS7uOpJjZdVEU/WOlUrk67VqS1ir/AQHAQwqFQs459yY1/2uEe7LRzIpmdtHq1atb7XQ9FQqFIefcv6ZdR8IiSV9p91cGaQAAtKz+/v5Du7q6Xj61PNCXdj0z8DtJFUnFcrl8hVrgXoJCoXC6c+7ytOtokK3OufdWKpVvpl1IEmgAALS8qeWBl5rZP0gKJR2Qdk0zcIektc65tV1dXetWrlx5b9oF7cnUmxr3Sjo07VoaqDI5OfmWNWvW3JJ2IT7RAABoKwMDA4dlMpnBqSWCeWnXM0ORmV3rnFsXBMG6pzzlKT9ZsWLFrrSLelAYhiXtbrQ6yXZJHzryyCM/10zfizhoAAC0rYGBgQVBECyX9ApJh6RdTwzbJY2aWdk594NyuXxrmsUUCoW3Oef+I80a0mJmtcnJybcODw+vTbuWuGgAALS9wcHBWRMTE/koipa32BsEe/M7Seucc5Xt27f/sNFnDoRheKKk3zRyzCbU8ssCrf4fAQDsl6m77V8r6VWSnpx2PR48IOlyST+V9JOenp6rG3GdcRiGt0l6atLjNLkHzOxTu3bt+veRkZGJtIvZXzQAADrS8uXLu+68887QOfcaSYvUmhsH92SHpKuccz8JguCn3d3dVxWLxR2+BwnD8Jva3URh93XDby2VSj9Iu5D9QQMAoOMtXbr08fV6vWBmg5JeKimbdk0e1c3seufcOufcFdls9mc+TibM5/OvNrNv+CiwXZjZ951z70x7j8Z00QAAwMP09/cf1dXVdY5z7lxJ89OuJwF1Seudcz8NguCnQRBcMZOGoFAozHbOtfSphgnZIekCM/tYqVQaS7uYx0IDAAB7sXTp0mMmJyfPkfT3knJp15OgrZIuN7MrnHMbxsbG1k9nY2EYhhslzU2+vJZ0h5l9aP78+V8ZGhqK0i5mT2gAAGAawjA80cwGnXOvlnRs2vUkrC6pJmmDmV3unLtiwYIFNzz6QRaG4QWSzk+lwtax3szeXiqVrki7kEejAQCA/TA0NBRcc801Z0RR9AozWyrpSWnX1CB/kvRLSVeb2dXZbPaX9Xr9FOfc6rQLawFO0vcnJyff1UyvDdIAAMAMDQ4OZiYmJk6XtMQ5t0ztPzPwCM65281stniWTNf9zrmPz5o169NJvJmxv/imAYAnUwfk5LX7mNy/Fj9jsWe3m9mHu7u7v1osFifTKoL/cwJAAhYvXnx0Nptd5JwLtfucga60a0LT2SjpPeVyuZLG4DQAAJCw/v7+J3V1dYXOuaWSXiKpJ+2a0Dycc+uiKHrXmjVrrmvkuDQAANBAg4ODB4+Pjy+S1G9mi5xzR6VdE5pCJOniRm4UpAEAgBQNDAw8I5PJnOmcO1NSv6SD064JqXrAzD6za9euT42MjGxLciAaAABoEoODg7N27tx5ehRFZ5rZmc65+eLndKf6o6RP9vT0XJDUGwP8HwsAmtTDNhIukvRiSY9LuyY0lpndJukj27Zt+5/R0dG612yfYQCAZCxcuDB70EEHPTcIgkXOuRea2SnizYJOssk594FKpXKxdh8sFBsNAAC0oDAMD9Tuy4pOd86daWanS5qVcllI3i+dcx+pVCrluEE0AADQBhYuXNhz6KGHnirpjCiKXmBmz5V0UNp1ITGXSfpguVy+fKYBNAAA0IaWL1/eddddd50SRdELJL1A0vMkHZJyWfDvCkn/Ui6Xf7K/H6QBAIAOMHVvwbOnZgdOk3SqpKPTrgt+OOfWmdn7yuXyL6f7GRoAAOhQhULhKc65UySdamanTv3zE9KuCzPnnFsXBME/l0ql9fv6WhoAAMBD8vn88do9O3CKmZ0q6dnay9HFzjmZ8RhpQs7MVkn6SKlUunZvX8R3DgCwV8uXL++6/fbbT8pkMqc6506VdIqkPkmZlEvDNEwtDXygXC5f9ei/owEAAOyXhQsX9hx88MFvNbNPpF0Lpu0K59wnHv76IA0AAGC/hWF4paTT0q4D++2hRoAGAACwX/L5/EIzuyztOjBjt5rZh7JpVwEAaC1BELzXOS+n0aIx6pJ+IakcRdG64eHhayQ5ZgAAANNWKBROcs5dJ5aQm91Nkn5oZut27dq1dk9XCzMDAACYNufce8XDvxlFZnatpMrk5GR5eHh4w74+wDcRADAtYRgeK6kmfnlsFjsk/cjMytlstnzJJZds3Z8P800EAEzXP4nnRtruMLOSc640NjZ22ejo6PhMg5gBAADs07Jlyw6v1+u3iBsG03CLpNWSigsWLPj50NBQ5COUTg4AsE/1ev2t4uHfSL+TVJFULJfLV0hyklQulx/zQ/uDGQAAwGM666yzDuru7r5F0uFp19LOzOy6KIouzmQyl6xevXpj0uMxAwAAeEw9PT2vc87x8E/GTZIukvT1Uqm0qZEDMwMAANir5cuXd23dunWzpKPTrqWN3CpplXZP71+eVhHMAAAA9mrr1q0vFw//2MzsNufcJXrUmn6aaAAAAHtlZu/g2N8Z+7OkknOu2NPTs6ZYLE6mXdDD0QAAAPYon88vds49K+06Wsykc+4ySRfu3Lnz4ksvvfT+tAvaGxoAAMAemdl70q6hVZjZBkkXZjKZ765cufLutOuZDjYBAgD+wpIlS54TRdFVadfR5G6R9A0zu7BUKm1Ju5j9xQwAAOAvRFH03rRraFIT2r2uf+GsWbOabl1/fzADAAB4hEKhkHPObZQUpF1LE9ko6ZuSvloul+9JuxgfmAEAADxCFEXvNjMe/tJ9kopm9qVSqXRt2sX4xgwAAOAhhUJhtnPud5K6064lJc4596MgCFZ0d3evLhaLO9MuKCnMAAAAHu7t6syH/32SipIuqFQqv027mEZgBgAAIEnq7+8/NJvN3irpcWnX0ihTr++t6O7uvrBYLO5Iu55GYgYAACBJymazb1RnPPzvkfT1ycnJ/16zZk0t7WLSwgwAAED9/f3d2Wz2JklHpl1Lgq4xsy87575VLpcfSLuYtDEDAABQV1fXec65dnz475S0OgiCFatXr16XdjHNhBkAAOhwQ0NDwYYNGzZJOj7tWjy6U9I36vX650dGRm5Lu5hmxAwAAHS4DRs2LFP7PPwvd859fvbs2ZesWLFiV9rFNDMaAADA/0m7gJgiSWucc/9WqVSuTLuYVkEDAAAdrFAovNA5d1radczQNklfl/Tpcrl8a8q1tBwaAADobK145e9Nkr6cyWS+vGrVqj+lXUyrYhMgAHSoQqFwknPuOrXIs8DMNkRRdMH27du/Mzo6Wk+7nlbHDAAAdCjn3HvU/A9/55wrS/p4uVxmfd+jZv/GAwASsHTp0mMmJyc3q3l/EYwkrZH0r+Vy+Zq0i2lHzfqNBwAkqF6vv9PMmvEZMCHpIufcRyqVyua0i2lnzAAAQIdZtmzZ4fV6/RZJB6Vdy8OMSfqamX2iVCrdkXYxnaAZuz8AQIImJyfPV/M8/P8g6TP1ev2/RkZGtqVdTCdhBgAAOkgYhgdKukXSE1Mu5R4z+8KuXbs+w4M/HcwAAEAHMbPXO+fSfPjz4G8SzAAAQIdYvnx519atWzdLOjqF4XnwNxlmAACgQ2zduvXlavzD/w9m9l88+JsPDQAAdAgze4dzrlHDjUn6LzP7WKlUGmvUoJg+GgAA6AD5fH6xc+5ZDRjqAUlfqdfrHx0ZGflDA8bDDNEAAEAHMLOkL/3Zpd3v8X+I9/hbA5sAAaDN5fP5U83sFwnFO0nfd879Cyf3tRZmAACgzQVB8N6E1v5/4Jx7b6VSuT6JcCSLGQAAaGOFQiHnnNsoKfAYu0nSu8rlcsVjJhqMGQAAaGPOuXfJ38P/XjP7yLZt274wOjpa95SJlDADAABtavHixUdkMpmbJPXEjNop6Us9PT0fLBaLf/ZQGpoAMwAA0Kay2ew7nHNxHv5O0vclvadcLt/kqSw0CWYAAKANDQ4OPm58fPxWSYfOMOKXzrm3VCqVq33Whebhc1MIAKBJjI+Pv1Eze/jfZ2Zv7+npeS4P//bGDAAAtJn+/v7ubDZ7k6Qj9+NjTtK36vX6OznBrzOwBwAA2kxXV9d5zrn9efhf65x7c6VSuTKxotB0WAIAgDYyNDQUSHrnNL/8wen+U3j4dx5mAACgjVxzzTVLnXO90/jSCyW9o1Qq3ZN0TWhONAAA0EamDv55LHdIelO5XF7diHrQvFgCAIA2USgUXijptL38tZO0wsz6ePhDYgYAANrJ3q783eKce32lUhltZDFobrwGCABtoFAonOScu06P/Llel/Tper3+ryMjIxMplYYmxQwAALSHd+uRD/9fmdmrSqXSr9IqCM2NGQAAaHFLly49ZnJycrN2/1LnJP1nvV5/N7/147EwAwAALa5er7/TzLKSfm9m55VKpcvSrgnNjxkAAGhhy5YtO7xer98iac3OnTvfsHbt2j+mXRNaAzMAANDCdu3adZ6ZvbFcLl+Ydi1oLf8PwxSt3WpqenUAAAAASUVORK5CYII=;rotation=-140;flipV=1;" parent="Wzahb84rhdzznRIE5RuG-1" vertex="1">
          <mxGeometry x="760" y="580" width="90" height="90" as="geometry" />
        </mxCell>
        <mxCell id="mOt1aWxRZ8ho-BYdcCai-0" value="" style="endArrow=none;html=1;rounded=0;strokeColor=none;" edge="1" parent="Wzahb84rhdzznRIE5RuG-1">
          <mxGeometry width="50" height="50" relative="1" as="geometry">
            <mxPoint x="440" y="600" as="sourcePoint" />
            <mxPoint x="1040" y="600" as="targetPoint" />
          </mxGeometry>
        </mxCell>
      </root>
    </mxGraphModel>
  </diagram>
  <diagram name="al_medio_3" id="TdK588GXH8GwrcLSlYPj">
    <mxGraphModel dx="1370" dy="843" grid="1" gridSize="10" guides="1" tooltips="1" connect="1" arrows="1" fold="1" page="1" pageScale="1" pageWidth="850" pageHeight="1100" math="0" shadow="0">
      <root>
        <mxCell id="swWKixlB6Vb-JRnAVmn4-0" />
        <mxCell id="swWKixlB6Vb-JRnAVmn4-1" parent="swWKixlB6Vb-JRnAVmn4-0" />
        <mxCell id="swWKixlB6Vb-JRnAVmn4-2" value="" style="rounded=0;whiteSpace=wrap;html=1;strokeWidth=1;" parent="swWKixlB6Vb-JRnAVmn4-1" vertex="1">
          <mxGeometry x="800" y="520" width="120" height="70" as="geometry" />
        </mxCell>
        <mxCell id="swWKixlB6Vb-JRnAVmn4-3" value="&lt;span style=&quot;color: rgb(77, 77, 77); font-family: &amp;quot;Cascadia Code&amp;quot;;&quot;&gt;&lt;font style=&quot;font-size: 18px;&quot;&gt;&quot;pistachos&quot;&lt;/font&gt;&lt;/span&gt;" style="rounded=0;whiteSpace=wrap;html=1;strokeWidth=1;fillColor=#DFEAF2;" parent="swWKixlB6Vb-JRnAVmn4-1" vertex="1">
          <mxGeometry x="560" y="520" width="120" height="70" as="geometry" />
        </mxCell>
        <mxCell id="swWKixlB6Vb-JRnAVmn4-4" value="&lt;span style=&quot;color: rgb(77, 77, 77); font-family: &amp;quot;Cascadia Code&amp;quot;;&quot;&gt;&lt;font style=&quot;font-size: 18px;&quot;&gt;&quot;maníes&quot;&lt;/font&gt;&lt;/span&gt;" style="rounded=0;whiteSpace=wrap;html=1;strokeWidth=1;fillColor=#DFEAF2;" parent="swWKixlB6Vb-JRnAVmn4-1" vertex="1">
          <mxGeometry x="680" y="520" width="120" height="70" as="geometry" />
        </mxCell>
        <mxCell id="swWKixlB6Vb-JRnAVmn4-5" value="&lt;span style=&quot;color: rgb(77, 77, 77); font-family: &amp;quot;Cascadia Code&amp;quot;;&quot;&gt;&lt;font style=&quot;font-size: 18px;&quot;&gt;&quot;castañas&quot;&lt;/font&gt;&lt;/span&gt;" style="rounded=0;whiteSpace=wrap;html=1;strokeWidth=1;fillColor=#DFEAF2;" parent="swWKixlB6Vb-JRnAVmn4-1" vertex="1">
          <mxGeometry x="920" y="520" width="120" height="70" as="geometry" />
        </mxCell>
        <mxCell id="swWKixlB6Vb-JRnAVmn4-6" value="&lt;span style=&quot;color: rgb(77, 77, 77); font-family: &amp;quot;Cascadia Code&amp;quot;;&quot;&gt;&lt;font style=&quot;font-size: 18px;&quot;&gt;&quot;nueces&quot;&lt;/font&gt;&lt;/span&gt;" style="rounded=0;whiteSpace=wrap;html=1;strokeWidth=1;fillColor=#DFEAF2;" parent="swWKixlB6Vb-JRnAVmn4-1" vertex="1">
          <mxGeometry x="440" y="520" width="120" height="70" as="geometry" />
        </mxCell>
        <mxCell id="swWKixlB6Vb-JRnAVmn4-7" value="&lt;font style=&quot;color: rgb(77, 77, 77);&quot; face=&quot;Cascadia Code&quot;&gt;1010&lt;/font&gt;" style="rounded=0;whiteSpace=wrap;html=1;strokeWidth=1;fillColor=#DFEAF2;fontSize=22;" parent="swWKixlB6Vb-JRnAVmn4-1" vertex="1">
          <mxGeometry x="440" y="480" width="120" height="40" as="geometry" />
        </mxCell>
        <mxCell id="swWKixlB6Vb-JRnAVmn4-8" value="&lt;span style=&quot;color: rgb(77, 77, 77); font-family: &amp;quot;Cascadia Code&amp;quot;;&quot;&gt;1013&lt;/span&gt;" style="rounded=0;whiteSpace=wrap;html=1;strokeWidth=1;fontSize=22;" parent="swWKixlB6Vb-JRnAVmn4-1" vertex="1">
          <mxGeometry x="800" y="480" width="120" height="40" as="geometry" />
        </mxCell>
        <mxCell id="swWKixlB6Vb-JRnAVmn4-9" value="&lt;font style=&quot;color: rgb(77, 77, 77);&quot; face=&quot;Cascadia Code&quot;&gt;1011&lt;/font&gt;" style="rounded=0;whiteSpace=wrap;html=1;strokeWidth=1;fillColor=#DFEAF2;fontSize=22;" parent="swWKixlB6Vb-JRnAVmn4-1" vertex="1">
          <mxGeometry x="560" y="480" width="120" height="40" as="geometry" />
        </mxCell>
        <mxCell id="swWKixlB6Vb-JRnAVmn4-10" value="&lt;font style=&quot;color: rgb(77, 77, 77);&quot; face=&quot;Cascadia Code&quot;&gt;1012&lt;/font&gt;" style="rounded=0;whiteSpace=wrap;html=1;strokeWidth=1;fillColor=#DFEAF2;fontSize=22;" parent="swWKixlB6Vb-JRnAVmn4-1" vertex="1">
          <mxGeometry x="680" y="480" width="120" height="40" as="geometry" />
        </mxCell>
        <mxCell id="swWKixlB6Vb-JRnAVmn4-11" value="&lt;font style=&quot;color: rgb(77, 77, 77);&quot; face=&quot;Cascadia Code&quot;&gt;1014&lt;/font&gt;" style="rounded=0;whiteSpace=wrap;html=1;strokeWidth=1;fillColor=#DFEAF2;fontSize=22;" parent="swWKixlB6Vb-JRnAVmn4-1" vertex="1">
          <mxGeometry x="920" y="480" width="120" height="40" as="geometry" />
        </mxCell>
        <mxCell id="swWKixlB6Vb-JRnAVmn4-12" value="" style="shape=image;verticalLabelPosition=bottom;labelBackgroundColor=default;verticalAlign=top;aspect=fixed;imageAspect=0;image=data:image/png,iVBORw0KGgoAAAANSUhEUgAAAgAAAAIACAYAAAD0eNT6AAAACXBIWXMAAA7DAAAOwwHHb6hkAAAAGXRFWHRTb2Z0d2FyZQB3d3cuaW5rc2NhcGUub3Jnm+48GgAAIABJREFUeJzt3XmcXFWd9/Hv71Y13WFTxAUiChjo6oBDNAHEQSUqEjtdt5Lg9KA4ijNqxg119HEZR512m3F51JHRUTM6LrgNJSSpqk4bjNIqCGLC4hJSlSCLQABBNB1Id1J9z/NHGh7AhHT6nlu3ls/7H3klXd/ze9HS99fnnHuO6WGWL1/edccdd7zGzN4s6SRJ9rC/vt7Mvrxt27b/Hh0drQsAALSshx7wYRgeK+l/JZ2yj89cK2lpuVy+NcnCAABAckyS8vn8U83scknHTOtDZrdJek6pVLojwdoAAEBCAkkys//RNB/+kuScO8o5962kigIAAMkKwjA8S9JZM/jsC6c+CwAAWkwg6bwYn4/zWQAAkJJA0qkxPn+Gr0IAAEDjBJJmx/j8UxctWvQEX8UAAIDGCCRNxAno7u6e66kWAADQIIGZ3RInwDnX56sYAADQGIFz7oaYGcwAAADQYgIzi9sAnOilEgAA0DBBFEVxG4D5XioBAAAN42MG4MmFQiHOmwQAAKDBgp6enk2SHoiZ82wfxQAAgMYIisXipKTfxgmJoogGAACAFhJM/e81cULMjAYAAIAW8mADcG3MHBoAAABaSCBJzrm4DcAxHAkMAEDrCCRp1qxZv5ZUj5Fj3d3d8/yUBAAAkhZIUrFY3CGpGjOL8wAAAGgRwcP+OdZGQLEPAACAlvHwBiDWPgDnHA0AAAAt4qEGwMNGwFwYhgfGzAAAAA3wUAOQzWavk+RiZGWiKFoQvyQAAJC0hxqAVatW/UnSzXHCzOy0uAUBAIDkPXwPgMxsQ5wwM3tOvHIAAEAjPKIBcM79Imbec2N+HgAANMAjGoAoiuI2ALP7+/uPipkBAAAS9ogG4MADD1wvaVecwEwmwz4AAACa3CMagKkTAX8dJ5B9AAAANL9gD392VcxMZgAAAGhyf9EAeNgIuGBwcPCAmBkAACBBf9EARFEUdwZg1o4dOzgQCACAJvYXDcCaNWs2S7o3VmgQPD/O5wEAQLL2tAfASYq1DOCcowEAAKCJ7akBkJldHjP39KGhoT1mAwCA9O3xIT05ORm3ATjs2muvPTFmBgAASMgeG4Aoiq6WNB4nOIoilgEAAGhSe2wARkZGJiStjxPMPgAAAJrXXtfpnXM/ixNsZjQAAAA0qb02AGYWqwGQ9NQwDI+NmQEAABKw1wagp6fn55Im44Sb2QvifB4AACRjrw1AsVj8s6TfxAl3zr0wzucBAEAyHvNd/bj7ACSdGfPzAAAgAY/ZAPjYB7B48eLemBkAAMCzx2wAstnsqHYfDTzzAYLgRXE+DwAA/HvMBmDlypV3S/ptnAHMjH0AAAA0mX2e1++c+1HMMV7MvQAAADSXfT6YzeyymGMcvn79+r+KmQEAADzaZwPQ09MzqvjnAbAPAACAJrLPBmDqPIBrYo5DAwAAQBOZ7tp83H0AZyxfvrwrZgYAAPBkug1A3H0Ah2zdunVBzAwAAODJdBuAyyVNxBnIzF4S5/MAAMCfaTUA5XL5AUlXxRnIObcozucBAIA/034/3zkXdxngtEWLFj0hZgYAAPBg2g2AmcXdCJg54IADuBwIAIAmMO0GYGxs7CpJf44zGMsAAAA0h2k3AKOjo3XFfB3QzPolWZwMAAAQ336d0e+c+0HM8Y4sFAocCwwAQMr2qwGYnJwc8TDmSz1kAACAGParARgZGblNMa8Hds7RAAAAkLKZXNMbdxngef39/YfGzAAAADHsdwNgZmtjjtmVzWZfGDMDAADEsN8NwK5du34qaXvMcXkdEACAFO13AzAyMjIh6Scxx+2P+XkAABDDTPYASFLcZYBjBgYGnhkzAwAAzNCMGgAP5wEoCIJC3AwAADAzM2oAKpXKZkk3xhybBgAAgJTMdAlAzrm4hwKdcvbZZx8ZMwMAAMzAjBuAIAiG445dr9fDmBkAAGAGZtwA7Nq16zJJY3EGd87RAAAAkIIZNwAjIyMTHg4FekmhUDgkZgYAANhPM24AJMk5V4o5fncURWfGzAAAAPspVgOwc+fOYUn1OBlmxtsAAAA0WKwGYO3atX+UdEXMGsLBwcFMzAwAALAfYjUAkpdlgMPHx8efG7cOAAAwfbEbgGw2uzpuBssAAAA0VuwGYNWqVTdK2hgnwzm3LG4dAABg+mI3AFPiLgMcVygUcl4qAQAA++SlAfCwD0DOuZf5qAUAAOyblwbg5JNP/oWkO+NkmNmgj1oAAMC+ma+gMAy/Ium1cTLMrK9UKlU9lQQAAPbC1x4AmRnLAAAAtAhvDYBzbp2k+2PG/I2PWgAAwGPz1gCUy+UHJMW9IvjZ+Xz+eB/1AACAvfPWAEiSc64YNyMIAmYBAABImNcGwMzWKOYygHOOtwEAAEiY1wZgahlgTcwYlgEAAEiY1wZAksyMZQAAAJqc9wbAOTcslgEAAGhq3hsAX8sAhULhOB/1AACAv+S9AZD8LANIYhYAAICEJNIAsAwAAEBzS6QBKJfLD5jZSMwYlgEAAEhIIg2A5OdQIEmv8JABAAAeJbEGQFJF8ZcBXiWPNxYCAIDdEmsAPC0DHJ/P50/xUhAAAHhIkjMAXpYBzOzvfNQCAAD+v0QbgImJiWFJD8SMefny5cu7fNQDAAB2S7QBuPTSS+93zpVixjzpzjvvPMtLQQAAQFLCDYAkBUHwrbgZURSxDAAAgEeJNwDbtm1bK+muOBlmtnRwcPBxnkoCAKDjJd4AjI6O1iX9b8yYnh07dpztox4AANCABmBK7GUA3gYAAMCfhh2yE4bhDZL6YkREQRAcs3r16t/7qgkAgE7VqBkAOee+HTMicM5xNDAAAB40rAGIouhCSS5OhnPuPE/lAADQ0RrWAKxZs+YWSVfEjDkhn8/P81EPAACdrGENwBQ2AwIA0AQa2gBEUXSRpImYMecODg5mfNQDAECnamgDMDw8fJ+k4ZgxsycmJl7qox4AADpVo5cA5JyLvQzgnHudj1oAAOhUDW8AZs2aNSzp3pgx+UKhMNtHPQAAdKKGNwDFYnGnpO/HjMlK4pVAAABmqOENwBQvywBDQ0Np1Q8AQEtL5QFaLpevkLQ5ZswzNmzYsNBDOQAAdJy0foN2kv7HQw6bAQEAmIHUptDN7GuSdsWMeVkYhk/0UQ8AAJ0ktQagVCrdZWaVmDEHmNkrvRQEAEAHSXsT3VfjBjjn/tFHIQAAdJJUG4D58+ePSLo1ZszcMAxP81EPAACdItUGYGhoKJL09bg5zrnXx68GAIDOkfYSgIIg+IqkyTgZZnZOf3//oZ5KAgCg7aXeAKxevfr3ZrYuZsxBXV1dL/dSEAAAHSD1BkCSoij6StwMLggCAGD6mqIBmDVrVknS3TFjTikUCs/2UQ8AAO2uKRqAqQuCvhk3h82AAABMT1M0AJJkZl/R7iOC4zhvYGDgMB/1AADQzpqmASiVSlUzuzxmzIFBEHBNMAAA+9A0DYDkZzOgpLdwTTAAAI+tqR6Us2bNKkq6L2bMnPXr17/URz0AALSrpmoAisXiDknfjZtjZud7KAcAgLbVVA2AJDnnVniIWbR48eJeDzkAALSlpmsAKpXK9ZJ+GjPGMpnMm33UAwBAO2q6BkCSnHP/6SHm77kfAACAPWvKBmD79u2rJP0+ZswhXV1dr/ZRDwAA7aYpG4DR0dG6pC/FzXHOvZVXAgEA+EvN/HBcIWk8ZsbxGzZsONNHMQAAtJOmbQDK5fI9kv7XQxSvBAIA8ChN2wBIkpl9zkPMAK8EAgDwSE3dAJRKpWudcz+PGWPZbPYfvRQEAECbaOoGQJKCIIj9SqBz7h8GBwcP9lEPAADtoOkbgCOOOOJiSbfHjHn8jh07/s5HPQAAtIOmbwBWrFixS7vfCIjFzN4iyeJXBABA62v6BkCSstnslyRNxIw5MQxDbgkEAEAt0gCsXLnybjP7voeod3rIAACg5bVEAyBJk5OTn/UQ8+IwDOd7yAEAoKW1TAMwPDy8QdLVcXPM7B0eygEAoKW1TAMgSWbm45XAc8IwfLqPegAAaFUt1QB0d3dfJOnOmDFZSW/1UA4AAC2rpRqAYrG40zkX+5ZASa8fHBx8nIccAABaUks1AJLU1dX1eUn3x4w5dGJiguOBAQAdq+UagJUrV95rZhfGzXHOvXVwcPAAHzUBANBqWq4BkKQoij4jKYoZ89SJiQmOBwYAdKSWbAAqlcpmSaW4Oc659w0ODmY8lAQAQEtpyQZgyqc9ZMzZsWPHMg85AAC0lJZtAMrl8uWSroybEwTBv4hLggAAHaZlG4ApsWcBnHPPGhgYOMtHMQAAtIqWbgAWLFiwUtKWuDlBEPyzh3IAAGgZLb0BbnR01OVyuUlJAzGjjunt7b20Vqvd5qMuAACaXUvPAEjS2NjY/0jaGjfHzJgFAAB0jJZvAEZHR8clfc5DVL5QKJzkIQcAgKbX8g2AJNXr9S9K+lPMGHPO/YuPegAAaHYtvQfgQVu2bJno7e19nJk9P2bU3OOPP/6SzZs33+2lMAAAmlRbzABIUldX139IeiBmTBAEwft81AMAQDNrixkASdq0adP9vb29R5rZqTGjTsjlchfVarV7vBQGAEATapsZAEnKZDKflLQzbowkZgEAAG2tbWYAJKlarW7r6+s7XtK8mFHPPO644763efPme33UBQBAs2mrGQBJmpyc/LjiXxWcyWQynAsAAGhbbdcADA8P3yDp+x6iXpXP54/3kAMAQNNpuwZAkoIg+Kg8zAJIeq+HcgAAaDptew1uGIYXSzo7ZsykmZ1YKpWqPmoCAKBZtOUMgCQ55z4sycWMyTjn3u+jHgAAmknbNgCVSuV6SSUPUedyRwAAoN20bQMgSWb2IcWfBQgkfcBDOQAANI223QPwoDAMy5LyMWOcmS0olUrX+qgJAIC0tfUMgCRFUTSk+LMA5pz7kIdyAABoCm3fAAwPD2+Q9AMPUWEYhqd5yAEAIHVt3wBIUhRFH1D8WQBJ+rCHDAAAUtdWdwHszebNm7f29vbON7NczKg5uVxutFar3eKlMAAAUtIRMwCSlMlk3q/4pwNK0ifVAZsnAQDtrSNmACSpWq3encvlTpR0Ysyop/b29l5fq9U2+agLAIA0dMwMgCRNTk5+QFI9bo6Z/fvChQuzHkoCACAVHdUArFmzpibpux6icocccshrPOQAAJCKjmoAJCmTyXxQ0k4PUR8Kw/BADzkAADRcxzUAq1atutk59w0PUbMlne8hBwCAhuu4BkCSzOyjkiY8RL132bJlh3vIAQCgoTqyASiXy7dK+rKHqMdPTk6+x0MOAAAN1ZENgCRls9mPSRqLm+OcO3/JkiVP81ASAAAN07ENwMqVK+92zn3aQ1SPc+6jHnIAAGiYjm0AJGnWrFmflnRn3Bzn3KsKhcLJHkoCAKAhOroBKBaL283sYx6izDn3fz3kAADQEB3dAEjSEUcc8WVJWzxEnZHP55d5yAEAIHFcaiMpDMNXSPqOh6jf1ev1E0ZGRny8YggAQGI6fgZAksrl8vfMbIOHqGdks9k3esgBACBRNAC7Oefc+zxlfZDDgQAAzY4GYEq5XL5U0o88RB1Wr9ff7yEHAIDE0AA8jHPunZIiD1FvXrx4ca+HHAAAEkED8DCVSuV6ST4uCurKZDKf9JADAEAiaAAexczeL+l+D1FLwjDs95ADAIB3mbQLaDbVanWst7e3y8wWeog7dc6cOSu2bNky6SELAABvmAHYg1mzZn1S0u89RB3f1dX1Fg85AAB4xUFAexGG4Wskfc1D1FhXV1fukksu2eohCwAAL5gB2IsFCxZ8U9J6D1GH7Nq1y8d9AwAAeMMMwGMIw/AMSaMeolwQBM9dvXr1LzxkAQAQGzMAj6FcLv9E0moPUeac+8LQ0BD/vgEATYEH0j5MTk6+W9LOuDnOuQXr168/z0NJAADExmuA+7B58+Z7e3t7DzGz0+NmmdlpJ5xwwlc2bdo07qM2AABmihmAaQiC4KOS7vAQ9ZR6vf4RDzkAAMTCDMA0VKvVnb29vfeY2bK4WWZ28ty5c9dWq9XbfdQGAMBM8BbA9FmhUPiJc+75sYPMNnR3dz+nWCxyQiAAIBUsAUyfc869XR5uC3TOLZiYmFjuoSYAAGaEJYD9UKvVtuZyuadJmu8h7vnPfOYzv3HDDTds95AFAMB+YQZgP2Wz2X+R9CcPUYfu2rXrEx5yAADYb8wA7KdNmzbdn8vlJiS91EPcvFwu97NarXaThywAAKaNGYAZGBsb+7ykX/vIMrMv9vf3d/vIAgBgumgAZmB0dLRuZm+T5OJmOed6u7q63uGhLAAApo3XAGMoFArfcs690kPUDjM7qVQqbfGQBQDAPjEDEM87Jd3nIWeWc+6/RUMGAGgQNgHGUK1W78/lcmOSBjzEHdPX13drtVq91kMWAACPiRmAmBYsWPAlSb/wkeWc+0yhUJjtIwsAgMdCAxDT0NBQFEXRmyX5ONb3cc65z3rIAQDgMbEE4MHmzZu39vX1PVnSqR7iTszlctfVarWqhywAAPaIGQBPdu3a9T75uTJYkv5r6dKlj/eUBQDAX6AB8GRkZGSbpHd5ipsdRdFHPWUBAPAXeO3MszAM10l6sYeoyMxeUCqVrvCQBQDAIzAD4JmZvUHSDg9RgXPuK4ODg7M8ZAEA8AhsAvSsWq3+MZfL1SWd6SHuifV6vbtWq/3QQxYAAA9hBiABY2NjnzazDZ7i3jEwMPB8T1kAAEiiAUjE6OhoPYqi10ra5SEuyGQyLAUAALxiCSAhtVrtrr6+vkMkne4h7vB6vX5grVZb6yELAABmAJLU3d39r5J83fD3tkKh8AJPWQCADsdrgAnL5/MLzezH8vPv+qaenp6TisXidg9ZAIAOxgxAwiqVyqikr3uKO3bHjh0cEAQAiI0GoAF27tz5fyTd5SPLzM4Pw/AMH1kAgM5FA9AAa9eu/aOZne8pLpD01cHBwYM95QEAOhANQIOUSqWipIs8xc0ZHx/n2mAAwIzRADTWm+VpKUDS6/L5/N94ygIAdBgagAYql8v3mNlyX3lm9sXFixcf4SsPANA5aAAarFQqlSR911PcE7PZ7NfF65wAgP1EA5CCbDZ7vqQ7fWQ55xYVCoU3+MgCAHQOfnNMST6fD82s5CnuATObXyqVqp7yAABtjhmAlFQqlbKkb3mKO9A5953BwcEDPOUBANocDUCKMpnM+WZ2m6e4+RMTEx/wlAUAaHMsAaTM81LAZBAEL1i9evXPPeUBANoU1wGnrFar1XK53FGS5nuIC5xzZx177LHfuPHGG3d4yAMAtCmWAJrAxMTE282s5inuaQcccMAKT1kAgDbFDEATuPHGG3flcrmrJP29/HxPTujt7b2rVqut95AFAGhDNABNolqt3pHL5bKSvNz0Z2ZnHnfcccObN2/2ct4AAKC9sATQRMbGxj4i6Ree4noymcxFhULhEE95AIA2QgPQREZHR+uZTOaVksY8RR7vnOPWQADAX2AJoMls2rTpvlwu90dJeU+R83t7e7fUarVfe8oDALQBzgFoUmEYliSFnuK2T05OLlizZo2vNw0AAC2OJYAmVa/XXytPFwZJOjibzXJUMADgITQATWpkZOQPkl4vyfnIc84tGB8f/5SPLABA62MPQBOr1Wq13t7ew8zsNE+Rz+nr67uxWq3+ylMeAKBFMQPQ5CYnJ98j6Rpfec65Ly5ZsuQEX3kAgNZEA9DkRkZGJszsHEnbPEUeHEXRJZwPAACdjQagBZRKpS3OueUeI3NRFHFfAAB0MPYAtIharfbbXC53rKRn+cgzs2fmcrk/1Gq1X/rIAwC0FmYAWsjExMSbJd3gMfI/lixZ8tce8wAALYKDgFrMwMDAM4MguFrSLE+Rv5c0v1wu3+MpDwDQApgBaDHDw8O/MbN3e4x8mqTvDQ4OshwEAB2EH/otqFqtXt3X1zdP0lxPkc+o1+uq1WqjnvIAAE2OGYAWNTk5+VpJv/MY+YF8Pr/MYx4AoImxB6CF5fP5eWZ2pfztB9geRdFzh4eHf+MpDwDQpJgBaGGVSuV659zbPEYeHARBOQzDJ3rMBAA0IfYAtLharXZNLpc7WtKzPUU+3jk3f/bs2d+9+eabI0+ZAIAmwwxAGxgbG3uTPN4XYGZnHnroof/mKw8A0HxoANrA6Ojo+NR9AX/2lemce1cYhq/xlQcAaC5sAmwj+Xw+NLPV8vd9HZf0gnK5zHHBANBm2APQRmq1Wi2Xyx0sydfxvllJi0488cTvbNq06X5PmQCAJsASQJsZGxv7Z0k/9Rj59Hq9XhwcHDzAYyYAIGU0AG1mdHS03tXV9XJJWz3GvmB8fPzLHvMAACljCaAN3XDDDdtzudwVkl6l3dP4Pjwrl8tN1Gq1yz3lAQBSRAPQpmq12m29vb23mpnP431f3NfXV61Wq5wUCAAtjgagjdVqtev7+vqeJOlUT5EmaWDu3LnrqtXq7Z4yAQApYA9Am9u2bdvbJV3mMXJWFEWrwjB8usdMAECD0QC0udHR0Xo2mx2U35sDj5C0ZnBw8HEeMwEADUQD0AFWrlx5r3PubEk+3+U/cXx8/LuDg4MsIwFAC6IB6BCVSuV6SedJch5j+8fHxz/lMQ8A0CD89tZBarXaDb29vQea2ekeY5/b19d3d7VaXe8xEwCQMGYAOszJJ5/8z5LW+Mx0zn2+UCic7TMTAJAsLgPqQP39/Ydms9krJD3TY+wOSWeVy2UOCgKAFkAD0KHCMDxW0lWSnuwx9l5JzyuXy5s8ZgIAEsASQIcql8s3mdnZkiY8xh5uZj9csmTJ0zxmAgASQAPQwUql0hWSXi2PbwY4546KomjN0qVLH+8rEwDgH28BdLharfbbXC6XkXSGx9gnO+dOmzNnzve2bNky6TEXAOAJDQBUq9VG+/r6jpN0ksfYY8zsuHPPPXfl6Oioz7MHAAAesAQASXLbtm17naQrfYaa2cvXr1//7z4zAQB+MAMASdLNN99cP/HEE8tRFA1K8rZ+b2an53K5P9dqtat8ZQIA4uM1QDzCwMDA3CAIfi6PTYB2bzJcXi6Xv+IxEwAQA0sAeITh4eEbJJ0jaZfHWJP0pTAMX+YxEwAQA0sA+Au1Wu3GXC53o6Sz5W+WKJC0NJfLbajVals8ZQIAZogGAHtUq9V+3dfXt1PSiz3GZiQtO/7443+2efPmWz3mAgD2Ew0A9qparV6ey+WeIOk5HmO7zOzsXC53aa1W2+oxFwCwH9gDgMe0YMGCf5J0sefYx0n6wcDAwFzPuQCAaeItAOzTwoULew499NBLnXPP95lrZrcFQfD8VatW3ewzFwCwb8wAYJ9GR0fHu7u7Q0m/8pnrnDtqcnLyh4sXLz7CZy4AYN+YAcC0hWH4dEk/l/RUz9G/kvTicrl8j+dcAMBeMAOAaSuXy7dGUfRSSfd5jj5J0rply5Yd7jkXALAXNADYL8PDw78xs5dJmvAcPa9er186MDBwmOdcAMAe0ABgv5VKpcvM7G8l1T1Hzw+C4EeLFi16gudcAMCjsAcAM1YoFP7OOfcN+W8kr4mi6Mzh4WHfSw0AgCkcBIQZq1arv8rlcvdIGvAcfaSZnTFnzpzili1bfC81AABEA4CYarXaL3O5XF3SizxHHxUEwcK+vr6LqtXqTs/ZANDxaAAQW61W+1lvb++BZna65+inOefO6OvrK9IEAIBfNADwolar/SiXyx0paYHPXDN7mqS/PuaYY4o33nijzyuKAaCj8RYAfHELFix4o6TvJpB9Rnd39w/6+/sPTSAbADoSbwHAq+XLl3dt3br1Ekl539lmtiGTySxauXLlvb6zAaDT0ADAu8HBwVnj4+NrJC30nW1m1+3ateuskZGRP/jOBoBOQgOARIRheKCkYSXQBEja5Jw7s1Kp3J5ANgB0BBoAJOass846qLu7e1jSGQnE3xxF0YuHh4d/l0A2ALQ9GgAkaqoJWCPpBQnE3zo1E7A5gWwAaGu8BYBEXXrppffX6/VQ0i8SiH+6mf1syZIlf5VANgC0NRoAJG5kZGRbT0/PIklXJxD/lCiKfpLP509NIBsA2hZLAGiYgYGBwzKZzA+dc14PC5pyn3NuoFKpXJlANgC0HWYA0DDDw8P3BUFwpqT1CcQfZmbrCoWC74uJAKAt0QCgoVatWvWnTCbzEjPbkED8gc651WEYvi6BbABoK9wFgIbbtGnTeG9v7yWSXirpKZ7jA0lhb2/vA7Va7eeeswGgbbAHAKkZGBg4LAiCEUnPSWiICxYsWPBPQ0NDUUL5ANCyaACQqsHBwYPHx8dLkl6YRL6ZffuII474+xUrVnCTIAA8DA0AUjd1bPAqSS9JIt85ty4IgrNLpdJYEvkA0IpoANAU+vv7u7PZ7PckLU1oiF/W6/UBLhECgN14CwBNYWRkZKKnp+ccSRcnNMQp2Wz2J2EYPj2hfABoKTQAaBrFYnHnVBPw9YSGmCvpqkKhcHJC+QDQMlgCQDOyfD5/gZm9JaH8+yW9slwur04oHwCaHucAoCnVarUf5HK5QyU9N4H4AySd09fXZ9VqdTSBfABoejQAaFq1Wm1tLpc7QNLzE4g3SQt7e3ufOG/evEs3btzoEhgDAJoWDQCaWq1W+3FfX9+92n1qoPclKzM7tV6vnzZnzpzSli1bJnznA0CzYg8AWkKhUDjbOfdtST0JDfFrSflyuXxrQvkA0FRoANAywjB8kaSVkg5NaIitURSFw8PDSVxUBABNhdcA0TLK5fKPzezFku5OaIgjgyD4SaFQKCSUDwBNgz0AaCnVavWO4447rhQEQV7SYQkMcYCkv+3r67u/Wq1emUA+ADQFlgDQkhYvXnxENpsdcc49K6kxnHPfM7PXlsvlB5IaAwDSwhIAWtKaNWvu7O7ufr6kHyY1hpm93MyuWLx48dFJjQEAaWEGAC1t6hKhCyUNJjjMPc65wUqlMprgGADQUOyID1MSAAAcBElEQVQBQEvbsmXL5Lx58y6ZnJw8XNKpCQ1zoJmd29vbe1etVrsmoTEAoKGYAUDbKBQKy51zX5CUTXCYFT09PecXi8WdCY4BAImjAUBbKRQKL3XO/a+SOytAkq4ws5eVSqW7EhwDABJFA4C2UygUTnLOVSQ9LakxzOw259zZ5XL5l0mNAQBJ4i0AtJ1SqfSrIAhOl3R9UmM4546SNJrP51+d1BgAkCRmANC2BgcHDx4fH/+OpDDhoS6U9AbOCwDQSngLAG1r48aNO+fNm3dRvV4/TNJzEhxqnpkN5HK5H1Wr1T8mOA4AeMMMADpCoVB4m3Pu00q26R2T9LpyuXxRgmMAgBc0AOgYhUKhMHWl8MEJDuMk/ceRRx75nhUrVuxKcBwAiIUGAB1lyZIlfxVF0SpJz0h4qF9mMpm/XbVq1c0JjwMAM0IDgI6zaNGiJxxwwAHfk/SShIe6x8xeVSqVfpDwOACw39gEiI5z44037pg3b9536vV6t6TnJTjUgZJemcvlZs2bN++yjRs3ugTHAoD9wgwAOloYhq+Q9BXtflgn6UpJryyXyzclPA4ATAsNADpeoVB4tnNupaSkr/39s6Q3lsvl7yY8DgDsEw0AIKm/v/9J2Wz2IkkLGzDchT09PW8qFovbGzAWAOwRewAASVu2bHlg9uzZ3+7u7k760CBJmlev11/R29t7da1Wuy3hsQBgj5gBAB5l6lrh/5R0QMJD1c3sY/Pnz//w0NBQlPBYAPAINADAHhQKhdOnrhV+atJjOefWBUFwXqlUuiPpsQDgQdwGCOxBqVS6QtKzJCX+Dr+Znemc+20+nz8n6bEA4EHsAQD2olarPXDuued+94477nBm9gIlO2PWY2Z/09fXd8TRRx89euONN3KMMIBEsQQATEOhUHihc+47ko5owHA3mdlrS6XSZQ0YC0CHYgkAmIZSqXSZc+5kSZc3YLhjnXM/CsPwy2edddZBDRgPHaa/v7877RqQPpYAgGmq1Wpjs2fPvrCnp8dJSnpJwCQtyGazL8/lctfXarVbEhwLHWbu3Lnn9Pb2Hl6r1W5OuxakhyUAYAby+XxoZt+QdFgDhou0+7jifyqXyw80YDy0ucWLFx+dyWR+65zLVyqV0bTrQTpoAIAZCsPw6ZIuUvIHBz3oxiiK/n54ePhnDRoPbSwMwy2SjqAJ6FwsAQAzVKvV/jxnzpwLzewQM3uOkm+on2Bmr8rlcgfOmTPn8i1btkwmPB7aWC6XO0HSc81ssLe39+csB3QeNgECMYyMjExUKpW3B0FwlqRGHOSTlfTebDa7IQzDUxowHtqUmf1o6h8PMrNKoVB4YaoFoeFoAAAPVq9eva5erz9LUrlBQ54o6edhGH5ucHDw4AaNiTaSyWR+rN37SyTpIOccTUCHYQ8A4JcVCoXXO+c+K+nABo15u3Pu/EqlsrJB46FNFAqF9c65BQ/7owfM7GWlUinxEzCRPmYAAL9cqVRaEQTBKZKub9CYTzWzS8IwLPf39x/VoDHRBpxz6x71Rwc651aHYfi3qRSEhmITIJCAarX6h9mzZ3+9u7u7S9JfqzGzbb1BELy2r69vxyte8Ypfjo6OugaMiRY2d+5cOede/ag/zkg6u6+v785qtbohjbrQGCwBAAkrFAovcc59Q9KRjRrTOfdz59w/Dg8P/6ZRY6L1LFy4sOeQQw75o6RZe/hrZ2YfLpVKQw0uCw3CDACQsGq1+rsTTzzxwiiKTpDU24gxzexpZvb6XC73xGOOOeZnXC6EPbn55pvrvb29C83sGXv4a5O0MJfLPaFWq61tdG1IHg0A0ACbNm26v1arfbevr+8OSQslNeIs9oyk50wdJ7ypVqvd2IAx0WJyudxTJZ35GF/ynL6+vmOPPPLIys033xw9xtehxbAEADRYGIbHSvof7W4EGsVJ+l69Xn/3yMjIbQ0cF01uYGBgQRAE66fxpaskvZLjqNsHDQCQjgdfF/y0pEa+x/+AmX1q27ZtHx8dHR1v4LhoUkNDQ8GGDRvukvTEaXz51WZWKJVKdyVdF5JHAwCkaGo24KuSGn0Ay++dc++vVCrfbPC4aEKFQqHonPubaX75TZIWl8vlTUnWhOTRAADpS2s2QJJ+HEXR23hboLPl8/k3mNkX9+Mj90laVi6Xf5JUTUgeBwEB6XOlUmlFFEXzJDX6B+qLgiC4ZupI4cc1eGw0iSAIHn0g0L4cJunSfD7/yiTqQWMwAwA0lwdnAz4j6aAGj32vmX2ku7v788VikZsGO0wYhr+TdOx+foyzAloYrwECTaZarW7I5XKXOOfmm9nTGjj0gZJeWq/XXzp37txfV6vV2xs4NlLW29t7opkt2PdXPsKDZwUcNW/evLUbN26kcWwhzAAAzcvy+fyrzOwzkg5v8NhO0vfN7H2lUmlLg8dGCvL5/Dlm9r0YEVdMXSTEGwItggYAaHKLFy8+IpPJfFLSq1IYfpekr5nZB/nB3t6WLVt2eL1ev1sx9oaZ2W2Tk5NLh4eHuUOgBdAAAC0in88vNrMvSDomheG3S/qCmX2sVCqNpTA+GiAMw2skPTtmzP2SziuXyxd7KAkJYg8A0CJqtdrmefPmrZicnKxr9w2Djfzv9wBJz5N0Xl9f3/Yjjzzyeo6FbT99fX1zJJ0eM+YASYO5XG7Wueee+2NupWxezAAALahQKJzknPuypNNSKmHT1LJAMaXxkYCBgYFFQRD8wGNkpV6vv3JkZGSbx0x4wjkAQAsqlUq/WrBgwelm9o+S0vjh2uecuygMwysHBgaen8L4SEAQBD+TNOExMp/NZn+6dOnSYzxmwhNmAIAW19/ff1RXV9cFzrllKZXgzOziycnJDw4PD9+QUg3wJAzDH8v/0dR/lvSacrm8ynMuYmAPANDitmzZsq1arf5vb2/v5VPvcT+5wSWYpBPM7I25XO6ZuVzu17Va7Z4G1wBPcrncUZJe5Dm2R9I57AtoLswAAG1k+fLlXXfeeeebnHMfkpTW0b6RpIvN7AOlUqmaUg2YoXw+f6qZ/SLBIS7LZrMvX7ly5d0JjoFpoAEA2tDUO90flPQWpbfXh0agBQ0ODmbGx8fvlvSEBIf5fRAEg6tXr06y0cA+0AAAbWxgYGCBmV1gZn+dYhmRpIsnJyffv2bNmlqKdWCawjC8WNLZCQ8zYWbvKZVKn0t4HOwFDQDQ/h48UvgTko5IsY5I0sXOuX+pVCqbU6wD+1AoFN7onPuvBg331Z6envOLxeKOBo2HKTQAQIfo7+8/NJvNflDSWyV1pVjKLknfjKLo34aHh3+XYh3Yi8WLF/dmMplGLtvcEATBOatXr/51A8fseDQAQIfJ5/PHm9lnJQ2kXEokaY1z7iOVSuXqlGvBo4RheJMae+z0DjP7Z5YEGocGAOhQS5YsOTOKok8q/tnvPlzhnPtEpVIpp10Idsvn8181s39o9Lhm9v3u7u7XFYvFPzd67E5DAwB0NisUCn/jnPu4pGekXozZdVEUfXb79u3fGR0draddTycLw/BcSd9OY2wzq9Xr9XPWrFlzXRrjdwoaAAAaHBw8YGJi4jXOuY9KelLa9Ui6ycw+193dvYLNYelYtmzZk+v1+p1K7znx4FsCF0ji4KAE0AAAeMjAwMBhQRC8R7s3Cs5Kux5Jd5vZFycmJi5Yu3btH9MuptOEYXidpHkpl3FxFEWvHx4evi/lOtoORwEDeMjmzZvHa7Xaulwud6F2HwRzktL9ReEgSQszmcybcrnc4XPnzr2hWq1ys1yD9PX1HS/puSmXcYKZndfX1/fbarW6JeVa2gozAAD2asmSJSdEUTQkaTDtWqZEktYEQfC51atX/0hMDScqDMN+SWvSrmOKk/Sf9Xr93SMjIz5vLOxYNAAA9ikMwxdJ+rikU9Ku5WF+bWafd859q1wuP5B2Me0oDMMDJf1RUnfatTzMb8zslaVS6VdpF9LqaAAATNvUq4P/puZqBLZJ+p6kz5bL5U1pF9NuwjAclXRG2nU8yrikoQULFnxqaGgoSruYVkUDAGC/TTUC/y7p5LRreZjIOfdjSRdUKpWKWB7wolAofMA59+G069iLH5rZa0ql0h1pF9KKaAAAzNiSJUvOdM593Dm3IO1aHmWzpK9GUbSC3ePxhGF4mqQr067jMdxtZq8vlUqltAtpNTQAAOKyfD6/1MyGtPutgWayzcwulPTVUql0bdrFtKKp64HvkfT4tGvZh+LOnTvfwOui00cDAMAXy+fz+alGYH7axezBRknflPTVcrl8T9rFtJIwDFdJWpJ2HdNwp3NuOUdKTw8NAADfHmwEPqTmuGfg0SYklYIgWMGrhNMThuH5ki5Iu479cKGZvblUKo2lXUgzowEAkIihoaFg/fr1Z5vZu9Vcbw083I2Svuac+3qlUrk97WKa1cDAwNwgCDamXcd+ukXSP5TL5R+nXUizogEAkLgwDJ8n6T3afQVxM/7ciZxzPw6CYEV3d/fqYrG4M+2Cmk0YhrdKelradewnJ+m/e3p63lksFrenXUyzacb/EAG0qXw+P29qRuBvJWXTrmcv7tLuKeQLOWzm/wvD8GuSXpN2HTO02cxeVyqVfpp2Ic2EBgBAwy1evPjoTCbzDkmv1e7z/pvVRjMrRlH07UqlsjntYtJUKBT+zjl3Ydp1xOAk/Xe9Xn/XyMgI90mIBgBAisIwfKJ2NwFvk3RkyuXsy0ZJ3+zq6vrmJZdcsjXtYhqtUCg8xTm3Va3/3NjqnHtzpVJZmXYhaWv1bySANtDf39+dyWTOMbP3Szo+7Xr2IZJ0pZkVnXPf7qRXCsMw/LWkZ6ZdhyfFer3+5pGRkT+kXUhaaAAANI2FCxdmDznkkEFJb5V0Wtr1TMO4dt+W952xsbHh0dHR8bQLSlIYhp+V9Pa06/DoPjN7b6lUWpF2IWmgAQDQlAqFwsnOubdIerma6za6vdkmaaWk74+Nja1rx2agUCgMOOcqadeRgEq9Xn/jyMjIbWkX0kg0AACa2tKlSx8fRdF5zrl/knR02vVM0w5JP3LOFbPZbGnVqlV/SrsgHwqFwiHOuXsldaVdSwLul/SRnp6e/1ssFifTLqYRaAAAtISpg4UGJL3VzF6s1vn5NSnpqqm3Cb7f6gcOhWH4M0nPS7uOpJjZdVEU/WOlUrk67VqS1ir/AQHAQwqFQs459yY1/2uEe7LRzIpmdtHq1atb7XQ9FQqFIefcv6ZdR8IiSV9p91cGaQAAtKz+/v5Du7q6Xj61PNCXdj0z8DtJFUnFcrl8hVrgXoJCoXC6c+7ytOtokK3OufdWKpVvpl1IEmgAALS8qeWBl5rZP0gKJR2Qdk0zcIektc65tV1dXetWrlx5b9oF7cnUmxr3Sjo07VoaqDI5OfmWNWvW3JJ2IT7RAABoKwMDA4dlMpnBqSWCeWnXM0ORmV3rnFsXBMG6pzzlKT9ZsWLFrrSLelAYhiXtbrQ6yXZJHzryyCM/10zfizhoAAC0rYGBgQVBECyX9ApJh6RdTwzbJY2aWdk594NyuXxrmsUUCoW3Oef+I80a0mJmtcnJybcODw+vTbuWuGgAALS9wcHBWRMTE/koipa32BsEe/M7Seucc5Xt27f/sNFnDoRheKKk3zRyzCbU8ssCrf4fAQDsl6m77V8r6VWSnpx2PR48IOlyST+V9JOenp6rG3GdcRiGt0l6atLjNLkHzOxTu3bt+veRkZGJtIvZXzQAADrS8uXLu+68887QOfcaSYvUmhsH92SHpKuccz8JguCn3d3dVxWLxR2+BwnD8Jva3URh93XDby2VSj9Iu5D9QQMAoOMtXbr08fV6vWBmg5JeKimbdk0e1c3seufcOufcFdls9mc+TibM5/OvNrNv+CiwXZjZ951z70x7j8Z00QAAwMP09/cf1dXVdY5z7lxJ89OuJwF1Seudcz8NguCnQRBcMZOGoFAozHbOtfSphgnZIekCM/tYqVQaS7uYx0IDAAB7sXTp0mMmJyfPkfT3knJp15OgrZIuN7MrnHMbxsbG1k9nY2EYhhslzU2+vJZ0h5l9aP78+V8ZGhqK0i5mT2gAAGAawjA80cwGnXOvlnRs2vUkrC6pJmmDmV3unLtiwYIFNzz6QRaG4QWSzk+lwtax3szeXiqVrki7kEejAQCA/TA0NBRcc801Z0RR9AozWyrpSWnX1CB/kvRLSVeb2dXZbPaX9Xr9FOfc6rQLawFO0vcnJyff1UyvDdIAAMAMDQ4OZiYmJk6XtMQ5t0ztPzPwCM65281stniWTNf9zrmPz5o169NJvJmxv/imAYAnUwfk5LX7mNy/Fj9jsWe3m9mHu7u7v1osFifTKoL/cwJAAhYvXnx0Nptd5JwLtfucga60a0LT2SjpPeVyuZLG4DQAAJCw/v7+J3V1dYXOuaWSXiKpJ+2a0Dycc+uiKHrXmjVrrmvkuDQAANBAg4ODB4+Pjy+S1G9mi5xzR6VdE5pCJOniRm4UpAEAgBQNDAw8I5PJnOmcO1NSv6SD064JqXrAzD6za9euT42MjGxLciAaAABoEoODg7N27tx5ehRFZ5rZmc65+eLndKf6o6RP9vT0XJDUGwP8HwsAmtTDNhIukvRiSY9LuyY0lpndJukj27Zt+5/R0dG612yfYQCAZCxcuDB70EEHPTcIgkXOuRea2SnizYJOssk594FKpXKxdh8sFBsNAAC0oDAMD9Tuy4pOd86daWanS5qVcllI3i+dcx+pVCrluEE0AADQBhYuXNhz6KGHnirpjCiKXmBmz5V0UNp1ITGXSfpguVy+fKYBNAAA0IaWL1/eddddd50SRdELJL1A0vMkHZJyWfDvCkn/Ui6Xf7K/H6QBAIAOMHVvwbOnZgdOk3SqpKPTrgt+OOfWmdn7yuXyL6f7GRoAAOhQhULhKc65UySdamanTv3zE9KuCzPnnFsXBME/l0ql9fv6WhoAAMBD8vn88do9O3CKmZ0q6dnay9HFzjmZ8RhpQs7MVkn6SKlUunZvX8R3DgCwV8uXL++6/fbbT8pkMqc6506VdIqkPkmZlEvDNEwtDXygXC5f9ei/owEAAOyXhQsX9hx88MFvNbNPpF0Lpu0K59wnHv76IA0AAGC/hWF4paTT0q4D++2hRoAGAACwX/L5/EIzuyztOjBjt5rZh7JpVwEAaC1BELzXOS+n0aIx6pJ+IakcRdG64eHhayQ5ZgAAANNWKBROcs5dJ5aQm91Nkn5oZut27dq1dk9XCzMDAACYNufce8XDvxlFZnatpMrk5GR5eHh4w74+wDcRADAtYRgeK6kmfnlsFjsk/cjMytlstnzJJZds3Z8P800EAEzXP4nnRtruMLOSc640NjZ22ejo6PhMg5gBAADs07Jlyw6v1+u3iBsG03CLpNWSigsWLPj50NBQ5COUTg4AsE/1ev2t4uHfSL+TVJFULJfLV0hyklQulx/zQ/uDGQAAwGM666yzDuru7r5F0uFp19LOzOy6KIouzmQyl6xevXpj0uMxAwAAeEw9PT2vc87x8E/GTZIukvT1Uqm0qZEDMwMAANir5cuXd23dunWzpKPTrqWN3CpplXZP71+eVhHMAAAA9mrr1q0vFw//2MzsNufcJXrUmn6aaAAAAHtlZu/g2N8Z+7OkknOu2NPTs6ZYLE6mXdDD0QAAAPYon88vds49K+06Wsykc+4ySRfu3Lnz4ksvvfT+tAvaGxoAAMAemdl70q6hVZjZBkkXZjKZ765cufLutOuZDjYBAgD+wpIlS54TRdFVadfR5G6R9A0zu7BUKm1Ju5j9xQwAAOAvRFH03rRraFIT2r2uf+GsWbOabl1/fzADAAB4hEKhkHPObZQUpF1LE9ko6ZuSvloul+9JuxgfmAEAADxCFEXvNjMe/tJ9kopm9qVSqXRt2sX4xgwAAOAhhUJhtnPud5K6064lJc4596MgCFZ0d3evLhaLO9MuKCnMAAAAHu7t6syH/32SipIuqFQqv027mEZgBgAAIEnq7+8/NJvN3irpcWnX0ihTr++t6O7uvrBYLO5Iu55GYgYAACBJymazb1RnPPzvkfT1ycnJ/16zZk0t7WLSwgwAAED9/f3d2Wz2JklHpl1Lgq4xsy87575VLpcfSLuYtDEDAABQV1fXec65dnz475S0OgiCFatXr16XdjHNhBkAAOhwQ0NDwYYNGzZJOj7tWjy6U9I36vX650dGRm5Lu5hmxAwAAHS4DRs2LFP7PPwvd859fvbs2ZesWLFiV9rFNDMaAADA/0m7gJgiSWucc/9WqVSuTLuYVkEDAAAdrFAovNA5d1radczQNklfl/Tpcrl8a8q1tBwaAADobK145e9Nkr6cyWS+vGrVqj+lXUyrYhMgAHSoQqFwknPuOrXIs8DMNkRRdMH27du/Mzo6Wk+7nlbHDAAAdCjn3HvU/A9/55wrS/p4uVxmfd+jZv/GAwASsHTp0mMmJyc3q3l/EYwkrZH0r+Vy+Zq0i2lHzfqNBwAkqF6vv9PMmvEZMCHpIufcRyqVyua0i2lnzAAAQIdZtmzZ4fV6/RZJB6Vdy8OMSfqamX2iVCrdkXYxnaAZuz8AQIImJyfPV/M8/P8g6TP1ev2/RkZGtqVdTCdhBgAAOkgYhgdKukXSE1Mu5R4z+8KuXbs+w4M/HcwAAEAHMbPXO+fSfPjz4G8SzAAAQIdYvnx519atWzdLOjqF4XnwNxlmAACgQ2zduvXlavzD/w9m9l88+JsPDQAAdAgze4dzrlHDjUn6LzP7WKlUGmvUoJg+GgAA6AD5fH6xc+5ZDRjqAUlfqdfrHx0ZGflDA8bDDNEAAEAHMLOkL/3Zpd3v8X+I9/hbA5sAAaDN5fP5U83sFwnFO0nfd879Cyf3tRZmAACgzQVB8N6E1v5/4Jx7b6VSuT6JcCSLGQAAaGOFQiHnnNsoKfAYu0nSu8rlcsVjJhqMGQAAaGPOuXfJ38P/XjP7yLZt274wOjpa95SJlDADAABtavHixUdkMpmbJPXEjNop6Us9PT0fLBaLf/ZQGpoAMwAA0Kay2ew7nHNxHv5O0vclvadcLt/kqSw0CWYAAKANDQ4OPm58fPxWSYfOMOKXzrm3VCqVq33Whebhc1MIAKBJjI+Pv1Eze/jfZ2Zv7+npeS4P//bGDAAAtJn+/v7ubDZ7k6Qj9+NjTtK36vX6OznBrzOwBwAA2kxXV9d5zrn9efhf65x7c6VSuTKxotB0WAIAgDYyNDQUSHrnNL/8wen+U3j4dx5mAACgjVxzzTVLnXO90/jSCyW9o1Qq3ZN0TWhONAAA0EamDv55LHdIelO5XF7diHrQvFgCAIA2USgUXijptL38tZO0wsz6ePhDYgYAANrJ3q783eKce32lUhltZDFobrwGCABtoFAonOScu06P/Llel/Tper3+ryMjIxMplYYmxQwAALSHd+uRD/9fmdmrSqXSr9IqCM2NGQAAaHFLly49ZnJycrN2/1LnJP1nvV5/N7/147EwAwAALa5er7/TzLKSfm9m55VKpcvSrgnNjxkAAGhhy5YtO7xer98iac3OnTvfsHbt2j+mXRNaAzMAANDCdu3adZ6ZvbFcLl+Ydi1oLf8PwxSt3WpqenUAAAAASUVORK5CYII=;rotation=-140;flipV=1;" parent="swWKixlB6Vb-JRnAVmn4-1" vertex="1">
          <mxGeometry x="880" y="580" width="90" height="90" as="geometry" />
        </mxCell>
        <mxCell id="_ikqlxy14a58DPr5v6SK-0" value="" style="endArrow=none;html=1;rounded=0;strokeColor=none;" edge="1" parent="swWKixlB6Vb-JRnAVmn4-1">
          <mxGeometry width="50" height="50" relative="1" as="geometry">
            <mxPoint x="440" y="600" as="sourcePoint" />
            <mxPoint x="1040" y="600" as="targetPoint" />
          </mxGeometry>
        </mxCell>
      </root>
    </mxGraphModel>
  </diagram>
  <diagram name="al_medio_4" id="s3ZoVQIK6Xx5RxsdWMpj">
    <mxGraphModel dx="1370" dy="843" grid="1" gridSize="10" guides="1" tooltips="1" connect="1" arrows="1" fold="1" page="1" pageScale="1" pageWidth="850" pageHeight="1100" math="0" shadow="0">
      <root>
        <mxCell id="kWfC3xfmnZSX9SjPyvtc-0" />
        <mxCell id="kWfC3xfmnZSX9SjPyvtc-1" parent="kWfC3xfmnZSX9SjPyvtc-0" />
        <mxCell id="kWfC3xfmnZSX9SjPyvtc-2" value="" style="rounded=0;whiteSpace=wrap;html=1;strokeWidth=1;" parent="kWfC3xfmnZSX9SjPyvtc-1" vertex="1">
          <mxGeometry x="920" y="520" width="120" height="70" as="geometry" />
        </mxCell>
        <mxCell id="kWfC3xfmnZSX9SjPyvtc-3" value="&lt;span style=&quot;color: rgb(77, 77, 77); font-family: &amp;quot;Cascadia Code&amp;quot;;&quot;&gt;&lt;font style=&quot;font-size: 18px;&quot;&gt;&quot;pistachos&quot;&lt;/font&gt;&lt;/span&gt;" style="rounded=0;whiteSpace=wrap;html=1;strokeWidth=1;fillColor=#DFEAF2;" parent="kWfC3xfmnZSX9SjPyvtc-1" vertex="1">
          <mxGeometry x="560" y="520" width="120" height="70" as="geometry" />
        </mxCell>
        <mxCell id="kWfC3xfmnZSX9SjPyvtc-4" value="&lt;span style=&quot;color: rgb(77, 77, 77); font-family: &amp;quot;Cascadia Code&amp;quot;;&quot;&gt;&lt;font style=&quot;font-size: 18px;&quot;&gt;&quot;maníes&quot;&lt;/font&gt;&lt;/span&gt;" style="rounded=0;whiteSpace=wrap;html=1;strokeWidth=1;fillColor=#DFEAF2;" parent="kWfC3xfmnZSX9SjPyvtc-1" vertex="1">
          <mxGeometry x="680" y="520" width="120" height="70" as="geometry" />
        </mxCell>
        <mxCell id="kWfC3xfmnZSX9SjPyvtc-5" value="&lt;span style=&quot;color: rgb(77, 77, 77); font-family: &amp;quot;Cascadia Code&amp;quot;;&quot;&gt;&lt;font style=&quot;font-size: 18px;&quot;&gt;&quot;castañas&quot;&lt;/font&gt;&lt;/span&gt;" style="rounded=0;whiteSpace=wrap;html=1;strokeWidth=1;fillColor=#DFEAF2;" parent="kWfC3xfmnZSX9SjPyvtc-1" vertex="1">
          <mxGeometry x="800" y="520" width="120" height="70" as="geometry" />
        </mxCell>
        <mxCell id="kWfC3xfmnZSX9SjPyvtc-6" value="&lt;span style=&quot;color: rgb(77, 77, 77); font-family: &amp;quot;Cascadia Code&amp;quot;;&quot;&gt;&lt;font style=&quot;font-size: 18px;&quot;&gt;&quot;nueces&quot;&lt;/font&gt;&lt;/span&gt;" style="rounded=0;whiteSpace=wrap;html=1;strokeWidth=1;fillColor=#DFEAF2;" parent="kWfC3xfmnZSX9SjPyvtc-1" vertex="1">
          <mxGeometry x="440" y="520" width="120" height="70" as="geometry" />
        </mxCell>
        <mxCell id="kWfC3xfmnZSX9SjPyvtc-7" value="&lt;font style=&quot;color: rgb(77, 77, 77);&quot; face=&quot;Cascadia Code&quot;&gt;1010&lt;/font&gt;" style="rounded=0;whiteSpace=wrap;html=1;strokeWidth=1;fillColor=#DFEAF2;fontSize=22;" parent="kWfC3xfmnZSX9SjPyvtc-1" vertex="1">
          <mxGeometry x="440" y="480" width="120" height="40" as="geometry" />
        </mxCell>
        <mxCell id="kWfC3xfmnZSX9SjPyvtc-8" value="&lt;span style=&quot;color: rgb(77, 77, 77); font-family: &amp;quot;Cascadia Code&amp;quot;;&quot;&gt;1014&lt;/span&gt;" style="rounded=0;whiteSpace=wrap;html=1;strokeWidth=1;fontSize=22;" parent="kWfC3xfmnZSX9SjPyvtc-1" vertex="1">
          <mxGeometry x="920" y="480" width="120" height="40" as="geometry" />
        </mxCell>
        <mxCell id="kWfC3xfmnZSX9SjPyvtc-9" value="&lt;font style=&quot;color: rgb(77, 77, 77);&quot; face=&quot;Cascadia Code&quot;&gt;1011&lt;/font&gt;" style="rounded=0;whiteSpace=wrap;html=1;strokeWidth=1;fillColor=#DFEAF2;fontSize=22;" parent="kWfC3xfmnZSX9SjPyvtc-1" vertex="1">
          <mxGeometry x="560" y="480" width="120" height="40" as="geometry" />
        </mxCell>
        <mxCell id="kWfC3xfmnZSX9SjPyvtc-10" value="&lt;font style=&quot;color: rgb(77, 77, 77);&quot; face=&quot;Cascadia Code&quot;&gt;1012&lt;/font&gt;" style="rounded=0;whiteSpace=wrap;html=1;strokeWidth=1;fillColor=#DFEAF2;fontSize=22;" parent="kWfC3xfmnZSX9SjPyvtc-1" vertex="1">
          <mxGeometry x="680" y="480" width="120" height="40" as="geometry" />
        </mxCell>
        <mxCell id="kWfC3xfmnZSX9SjPyvtc-11" value="&lt;font style=&quot;color: rgb(77, 77, 77);&quot; face=&quot;Cascadia Code&quot;&gt;1013&lt;/font&gt;" style="rounded=0;whiteSpace=wrap;html=1;strokeWidth=1;fillColor=#DFEAF2;fontSize=22;" parent="kWfC3xfmnZSX9SjPyvtc-1" vertex="1">
          <mxGeometry x="800" y="480" width="120" height="40" as="geometry" />
        </mxCell>
        <mxCell id="XUWRHMBUR-KgsifodB4E-1" value="&lt;span style=&quot;color: rgb(77, 77, 77); font-family: &amp;quot;Cascadia Code&amp;quot;;&quot;&gt;&lt;font style=&quot;font-size: 18px;&quot;&gt;&quot;pistachos&quot;&lt;/font&gt;&lt;/span&gt;" style="rounded=0;whiteSpace=wrap;html=1;strokeWidth=1;fillColor=#DFEAF2;" parent="kWfC3xfmnZSX9SjPyvtc-1" vertex="1">
          <mxGeometry x="560" y="720" width="120" height="70" as="geometry" />
        </mxCell>
        <mxCell id="XUWRHMBUR-KgsifodB4E-2" value="&lt;span style=&quot;color: rgb(77, 77, 77); font-family: &amp;quot;Cascadia Code&amp;quot;;&quot;&gt;&lt;font style=&quot;font-size: 18px;&quot;&gt;&quot;maníes&quot;&lt;/font&gt;&lt;/span&gt;" style="rounded=0;whiteSpace=wrap;html=1;strokeWidth=1;fillColor=#DFEAF2;" parent="kWfC3xfmnZSX9SjPyvtc-1" vertex="1">
          <mxGeometry x="680" y="720" width="120" height="70" as="geometry" />
        </mxCell>
        <mxCell id="XUWRHMBUR-KgsifodB4E-3" value="&lt;span style=&quot;color: rgb(77, 77, 77); font-family: &amp;quot;Cascadia Code&amp;quot;;&quot;&gt;&lt;font style=&quot;font-size: 18px;&quot;&gt;&quot;castañas&quot;&lt;/font&gt;&lt;/span&gt;" style="rounded=0;whiteSpace=wrap;html=1;strokeWidth=1;fillColor=#DFEAF2;" parent="kWfC3xfmnZSX9SjPyvtc-1" vertex="1">
          <mxGeometry x="800" y="720" width="120" height="70" as="geometry" />
        </mxCell>
        <mxCell id="XUWRHMBUR-KgsifodB4E-4" value="&lt;span style=&quot;color: rgb(77, 77, 77); font-family: &amp;quot;Cascadia Code&amp;quot;;&quot;&gt;&lt;font style=&quot;font-size: 18px;&quot;&gt;&quot;nueces&quot;&lt;/font&gt;&lt;/span&gt;" style="rounded=0;whiteSpace=wrap;html=1;strokeWidth=1;fillColor=#DFEAF2;" parent="kWfC3xfmnZSX9SjPyvtc-1" vertex="1">
          <mxGeometry x="440" y="720" width="120" height="70" as="geometry" />
        </mxCell>
        <mxCell id="XUWRHMBUR-KgsifodB4E-5" value="&lt;font style=&quot;color: rgb(77, 77, 77);&quot; face=&quot;Cascadia Code&quot;&gt;1010&lt;/font&gt;" style="rounded=0;whiteSpace=wrap;html=1;strokeWidth=1;fillColor=#DFEAF2;fontSize=22;" parent="kWfC3xfmnZSX9SjPyvtc-1" vertex="1">
          <mxGeometry x="440" y="680" width="120" height="40" as="geometry" />
        </mxCell>
        <mxCell id="XUWRHMBUR-KgsifodB4E-7" value="&lt;font style=&quot;color: rgb(77, 77, 77);&quot; face=&quot;Cascadia Code&quot;&gt;1011&lt;/font&gt;" style="rounded=0;whiteSpace=wrap;html=1;strokeWidth=1;fillColor=#DFEAF2;fontSize=22;" parent="kWfC3xfmnZSX9SjPyvtc-1" vertex="1">
          <mxGeometry x="560" y="680" width="120" height="40" as="geometry" />
        </mxCell>
        <mxCell id="XUWRHMBUR-KgsifodB4E-8" value="&lt;font style=&quot;color: rgb(77, 77, 77);&quot; face=&quot;Cascadia Code&quot;&gt;1012&lt;/font&gt;" style="rounded=0;whiteSpace=wrap;html=1;strokeWidth=1;fillColor=#DFEAF2;fontSize=22;" parent="kWfC3xfmnZSX9SjPyvtc-1" vertex="1">
          <mxGeometry x="680" y="680" width="120" height="40" as="geometry" />
        </mxCell>
        <mxCell id="XUWRHMBUR-KgsifodB4E-9" value="&lt;font style=&quot;color: rgb(77, 77, 77);&quot; face=&quot;Cascadia Code&quot;&gt;1013&lt;/font&gt;" style="rounded=0;whiteSpace=wrap;html=1;strokeWidth=1;fillColor=#DFEAF2;fontSize=22;" parent="kWfC3xfmnZSX9SjPyvtc-1" vertex="1">
          <mxGeometry x="800" y="680" width="120" height="40" as="geometry" />
        </mxCell>
        <mxCell id="pgXtAhcRGtyEySp9GNIf-0" value="" style="endArrow=classic;html=1;rounded=0;strokeWidth=2;strokeColor=#4D4D4D;" parent="kWfC3xfmnZSX9SjPyvtc-1" edge="1">
          <mxGeometry width="50" height="50" relative="1" as="geometry">
            <mxPoint x="739.5" y="610" as="sourcePoint" />
            <mxPoint x="739.5" y="670" as="targetPoint" />
          </mxGeometry>
        </mxCell>
        <mxCell id="--BxOssCV9aBx-UHS0Px-0" value="" style="endArrow=none;html=1;rounded=0;strokeColor=none;" edge="1" parent="kWfC3xfmnZSX9SjPyvtc-1">
          <mxGeometry width="50" height="50" relative="1" as="geometry">
            <mxPoint x="440" y="600" as="sourcePoint" />
            <mxPoint x="1040" y="600" as="targetPoint" />
          </mxGeometry>
        </mxCell>
      </root>
    </mxGraphModel>
  </diagram>
</mxfile>
